<svg xmlns="http://www.w3.org/2000/svg" baseProfile="full" version="1.1" width="300px" height="300px" style="fill: none; width: 300px; height: 300px; stroke-width: 30;"><path d="" style="stroke-width: 10; stroke-linecap: round; stroke-linejoin: round; stroke: rgb(68, 68, 68); fill: none;"></path><path d="" style="stroke-width: 10; stroke-linecap: round; stroke-linejoin: round; stroke: rgb(119, 119, 119); fill: none;"></path><path d="M60,240 A180,-60 0 0,1 240,180 M120,225 L120,225 L0,60 M120,120 L120,120 L180,120 M90,30 L90,30 L225,30 M60,300 L60,300 L30,300 M240,240 A-180,-60 0 0,0 60,180 M180,225 L180,225 L300,60 M180,120 L180,120 L120,120 M210,30 L210,30 L75,30 M240,300 L240,300 L270,300 " style="stroke-width: 30; stroke-linecap: round; stroke-linejoin: miter; stroke: rgb(255, 255, 255); fill: none;"></path></svg>