<svg xmlns="http://www.w3.org/2000/svg" baseProfile="full" version="1.1" width="300px" height="300px" style="fill: none; width: 300px; height: 300px; stroke-width: 30;"><path d="" style="stroke-width: 10; stroke-linecap: round; stroke-linejoin: round; stroke: rgb(68, 68, 68); fill: none;"></path><path d="" style="stroke-width: 10; stroke-linecap: round; stroke-linejoin: round; stroke: rgb(119, 119, 119); fill: none;"></path><path d="M0,120 L0,120 L60,60 L60,60 L75,105 M135,0 L135,0 L75,105 M132.2,-1.9 L132.2,-1.9 L207.8,36.6 L207.8,36.6 L169.6,64.8 M288,89.4 L288,89.4 L169.6,64.8 M289,86.1 L289,86.1 L275.7,169.9 L275.7,169.9 L237.1,142.3 M250.3,262.5 L250.3,262.5 L237.1,142.3 M253.7,262.4 L253.7,262.4 L169.9,275.7 L169.9,275.7 L184.2,230.5 M74,280.2 L74,280.2 L184.2,230.5 M75.1,283.4 L75.1,283.4 L36.6,207.8 L36.6,207.8 L84,207.4 M2.7,117.9 L2.7,117.9 L84,207.4 " style="stroke-width: 30; stroke-linecap: round; stroke-linejoin: miter; stroke: rgb(255, 255, 255); fill: none;"></path></svg>