<svg xmlns="http://www.w3.org/2000/svg" baseProfile="full" version="1.1" width="300px" height="300px" style="fill: none; width: 300px; height: 300px; stroke-width: 30;"><path d="" style="stroke-width: 10; stroke-linecap: round; stroke-linejoin: round; stroke: rgb(68, 68, 68); fill: none;"></path><path d="" style="stroke-width: 10; stroke-linecap: round; stroke-linejoin: round; stroke: rgb(119, 119, 119); fill: none;"></path><path d="M180,0 A60,60 0 0,1 240,60 M180,60 L180,60 L60,120 M300,120 A-60,30 0 0,0 240,150 M150,150 L150,150 L105,150 M0,0 A60,60 0 0,0 60,60 M180,300 A60,-60 0 0,0 240,240 M180,240 L180,240 L60,180 M300,180 A-60,-30 0 0,1 240,150 M150,150 L150,150 L105,150 M0,300 A60,-60 0 0,1 60,240 " style="stroke-width: 30; stroke-linecap: round; stroke-linejoin: miter; stroke: rgb(255, 255, 255); fill: rgb(255, 255, 255);"></path></svg>