<svg xmlns="http://www.w3.org/2000/svg" baseProfile="full" version="1.1" width="300px" height="300px" style="fill: none; width: 300px; height: 300px; stroke-width: 30;"><path d="" style="stroke-width: 10; stroke-linecap: round; stroke-linejoin: round; stroke: rgb(68, 68, 68); fill: none;"></path><path d="" style="stroke-width: 10; stroke-linecap: round; stroke-linejoin: round; stroke: rgb(119, 119, 119); fill: none;"></path><path d="M120,0 A-120,60 0 0,1 0,60 M120,240 L120,240 L300,180 M240,60 L240,60 L180,120 M0,120 A60,60 0 0,1 60,180 M120,300 A-120,-60 0 0,0 0,240 M120,60 L120,60 L300,120 M240,240 L240,240 L180,180 M0,180 A60,-60 0 0,0 60,120 " style="stroke-width: 30; stroke-linecap: round; stroke-linejoin: miter; stroke: rgb(255, 255, 255); fill: none;"></path></svg>