<svg xmlns="http://www.w3.org/2000/svg" baseProfile="full" version="1.1" width="300px" height="300px" style="fill: none; width: 300px; height: 300px; stroke-width: 30;"><path d="" style="stroke-width: 10; stroke-linecap: round; stroke-linejoin: round; stroke: rgb(68, 68, 68); fill: none;"></path><path d="" style="stroke-width: 10; stroke-linecap: round; stroke-linejoin: round; stroke: rgb(119, 119, 119); fill: none;"></path><path d="M0,120 A120,-120 0 0,1 120,0 M60,120 A60,-60 0 0,1 120,60 M120,120 L120,120 L300,0 M240,120 L240,120 L300,60 M0,180 A120,120 0 0,0 120,300 M60,180 A60,60 0 0,0 120,240 M120,180 L120,180 L300,300 M240,180 L240,180 L300,240 " style="stroke-width: 30; stroke-linecap: round; stroke-linejoin: miter; stroke: rgb(255, 255, 255); fill: none;"></path></svg>