<?xml version="1.0" encoding="UTF-8"?>
<svg width="376px" height="161px" viewBox="0 0 376 161" version="1.1" xmlns="http://www.w3.org/2000/svg" xmlns:xlink="http://www.w3.org/1999/xlink">
    <!-- Generator: Sketch 50.2 (55047) - http://www.bohemiancoding.com/sketch -->
    <title>Group 6</title>
    <desc>Created with Sketch.</desc>
    <defs></defs>
    <g id="Page-1" stroke="none" stroke-width="1" fill="none" fill-rule="evenodd">
        <g id="Artboard-2-Copy" transform="translate(-1338.000000, -3079.000000)" fill="#002448">
            <g id="Group-6" transform="translate(1337.000000, 3079.000000)">
                <path d="M10.1055625,34 L3.6255625,34 L3.6255625,0.4 L9.8175625,0.4 L15.5775625,17.632 L21.3375625,0.4 L27.5295625,0.4 L27.5295625,34 L21.0495625,34 L21.0495625,13.168 L17.6415625,23.152 L13.5135625,23.152 L10.1055625,13.168 L10.1055625,34 Z M60.6815625,34 L35.9615625,34 L35.9615625,27.76 L45.3215625,27.76 L45.3215625,7.84 L38.0735625,12.4 L38.0735625,5.2 L45.8015625,0.4 L51.8015625,0.4 L51.8015625,27.76 L60.6815625,27.76 L60.6815625,34 Z M82.2655625,34 L75.7855625,34 L75.7855625,6.64 L65.9455625,6.64 L65.9455625,0.4 L92.1055625,0.4 L92.1055625,6.64 L82.2655625,6.64 L82.2655625,34 Z M137.529562,6.64 L137.529562,27.76 L142.953563,27.76 C147.273563,27.76 148.761563,25.984 148.905563,16.672 C148.905563,12.784 148.473563,10.144 147.657563,8.752 C146.841563,7.36 145.401562,6.64 143.241563,6.64 L137.529562,6.64 Z M142.953563,34 L131.049563,34 L131.049563,0.4 L143.241563,0.4 C151.353562,0.4 155.385563,5.824 155.385563,16.672 C155.385563,28.24 151.257562,34 142.953563,34 Z M185.753563,34 L164.489562,34 L164.489562,0.4 L185.753563,0.4 L185.753563,6.64 L170.969562,6.64 L170.969562,13.216 L184.409562,13.216 L184.409562,19.456 L170.969562,19.456 L170.969562,27.76 L185.753563,27.76 L185.753563,34 Z M200.953563,34 L194.473563,34 L194.473563,0.4 L200.473563,0.4 L212.377563,21.952 L212.377563,0.4 L218.905563,0.4 L218.905563,34 L213.001563,34 L200.953563,12.448 L200.953563,34 Z M7.6575625,82 L0.9855625,82 L12.6495625,48.4 L18.3615625,48.4 L29.9775625,82 L23.0655625,82 L21.0975625,76.144 L9.6255625,76.144 L7.6575625,82 Z M15.3855625,58.384 L11.7855625,69.904 L19.0335625,69.904 L15.3855625,58.384 Z M34.8095625,70.096 L34.8095625,48.4 L41.2895625,48.4 L41.2895625,70.288 C41.2895625,74.08 43.2575625,76.48 47.2415625,76.48 C51.2255625,76.48 53.1935625,74.032 53.1935625,70.384 L53.1935625,48.4 L59.6735625,48.4 L59.6735625,70.096 C59.6735625,73.792 58.5215625,76.816 56.2175625,79.168 C53.9135625,81.52 50.9375625,82.72 47.2415625,82.72 C43.5455625,82.72 40.5695625,81.52 38.2655625,79.168 C35.9615625,76.816 34.8095625,73.792 34.8095625,70.096 Z M85.1455625,70.432 L77.7055625,70.432 L77.7055625,64.432 L91.6255625,64.432 L91.6255625,70.096 C91.6255625,73.792 90.4735625,76.816 88.1695625,79.168 C85.8655625,81.52 82.8895625,82.72 79.1935625,82.72 C71.3695625,82.72 66.7135625,77.008 66.7135625,64.672 C66.7135625,53.488 71.5135625,47.68 79.1935625,47.68 C82.5055625,47.68 85.2895625,48.832 87.4975625,51.184 C89.7535625,53.536 91.0015625,56.464 91.2415625,59.968 L85.1935625,60.784 C84.7615625,56.224 82.7935625,53.92 79.1935625,53.92 C74.9695625,53.92 73.1935625,56.8 73.1935625,64.672 C73.1935625,69.136 73.6735625,72.256 74.5855625,73.936 C75.4975625,75.616 77.0335625,76.48 79.1935625,76.48 C83.1775625,76.48 85.0975625,74.08 85.1455625,70.432 Z M122.233563,82 L100.969562,82 L100.969562,48.4 L122.233563,48.4 L122.233563,54.64 L107.449562,54.64 L107.449562,61.216 L120.889563,61.216 L120.889563,67.456 L107.449562,67.456 L107.449562,75.76 L122.233563,75.76 L122.233563,82 Z M137.433562,82 L130.953563,82 L130.953563,48.4 L136.953563,48.4 L148.857563,69.952 L148.857563,48.4 L155.385563,48.4 L155.385563,82 L149.481563,82 L137.433562,60.448 L137.433562,82 Z M10.4895625,102.64 L10.4895625,123.76 L15.9135625,123.76 C20.2335625,123.76 21.7215625,121.984 21.8655625,112.672 C21.8655625,108.784 21.4335625,106.144 20.6175625,104.752 C19.8015625,103.36 18.3615625,102.64 16.2015625,102.64 L10.4895625,102.64 Z M15.9135625,130 L4.0095625,130 L4.0095625,96.4 L16.2015625,96.4 C24.3135625,96.4 28.3455625,101.824 28.3455625,112.672 C28.3455625,124.24 24.2175625,130 15.9135625,130 Z M58.7135625,130 L37.4495625,130 L37.4495625,96.4 L58.7135625,96.4 L58.7135625,102.64 L43.9295625,102.64 L43.9295625,109.216 L57.3695625,109.216 L57.3695625,115.456 L43.9295625,115.456 L43.9295625,123.76 L58.7135625,123.76 L58.7135625,130 Z M75.0175625,130 L68.5375625,130 L68.5375625,96.4 L80.6335625,96.4 C83.4655625,96.4 85.8655625,97.36 87.8335625,99.328 C89.8495625,101.296 90.8575625,103.696 90.8575625,106.576 C90.8575625,110.848 89.2255625,113.584 85.5295625,115.648 L92.2975625,130 L85.0975625,130 L78.8575625,116.8 L75.0175625,116.8 L75.0175625,130 Z M75.0175625,102.64 L75.0175625,110.56 L80.6335625,110.56 C81.9295625,110.656 84.2335625,109.936 84.3775625,106.672 C84.3775625,104.224 82.6015625,102.64 80.6335625,102.64 L75.0175625,102.64 Z M137.145563,130 L130.665563,130 L130.665563,96.4 L136.857563,96.4 L142.617563,113.632 L148.377563,96.4 L154.569563,96.4 L154.569563,130 L148.089563,130 L148.089563,109.168 L144.681562,119.152 L140.553562,119.152 L137.145563,109.168 L137.145563,130 Z M166.457562,130 L159.785562,130 L171.449562,96.4 L177.161562,96.4 L188.777562,130 L181.865563,130 L179.897563,124.144 L168.425563,124.144 L166.457562,130 Z M174.185563,106.384 L170.585562,117.904 L177.833562,117.904 L174.185563,106.384 Z M193.225563,118.288 L199.225563,117.184 C199.417563,118.672 199.609563,119.536 200.233563,121.024 C201.193563,122.896 202.921562,124.48 206.521563,124.48 C209.833562,124.48 212.377563,122.992 212.377563,120.064 C212.377563,117.52 210.649563,116.128 206.233563,114.976 C202.777562,114.064 200.569563,113.248 198.409562,111.76 C196.249562,110.224 195.145563,107.968 195.145563,104.944 C195.145563,102.4 196.105562,100.24 198.073562,98.416 C200.041563,96.592 202.777562,95.68 206.233563,95.68 C212.041563,95.68 216.697563,98.944 218.089563,104.944 L212.089563,106.24 C211.465563,103.936 209.545562,101.92 206.233563,101.92 C203.401562,101.92 201.625562,103.264 201.625562,104.944 C201.625562,106.816 203.641562,107.632 208.057563,108.976 C211.273563,109.984 213.529562,110.944 214.777562,111.808 C217.513563,113.68 218.857563,116.416 218.857563,120.064 C218.857563,123.232 217.753563,125.824 215.497562,127.792 C213.241563,129.76 210.265562,130.72 206.521563,130.72 C202.537562,130.72 199.417563,129.52 197.545562,127.936 C194.569563,125.248 193.561563,121.552 193.225563,118.288 Z M244.473563,117.616 L250.521563,118.624 C250.329563,122.032 249.129563,124.912 246.873562,127.264 C244.665563,129.568 241.881562,130.72 238.473563,130.72 C230.649563,130.72 225.993563,125.008 225.993563,112.672 C225.993563,101.488 230.793563,95.68 238.473563,95.68 C241.881562,95.68 244.665563,96.832 246.873562,99.184 C249.129563,101.488 250.329563,104.368 250.521563,107.776 L244.473563,108.784 C244.041563,104.224 242.073562,101.92 238.473563,101.92 C234.249562,101.92 232.473563,104.8 232.473563,112.672 C232.473563,117.136 232.953563,120.256 233.865562,121.936 C234.777562,123.616 236.313562,124.48 238.473563,124.48 C242.073562,124.48 244.041563,122.176 244.473563,117.616 Z M263.945563,130 L257.465563,130 L257.465563,96.4 L263.945563,96.4 L263.945563,109.216 L275.465563,109.216 L275.465563,96.4 L281.945563,96.4 L281.945563,130 L275.465563,130 L275.465563,115.456 L263.945563,115.456 L263.945563,130 Z M314.761562,130 L290.041563,130 L290.041563,123.76 L299.401562,123.76 L299.401562,103.84 L292.153562,108.4 L292.153562,101.2 L299.881562,96.4 L305.881562,96.4 L305.881562,123.76 L314.761562,123.76 L314.761562,130 Z M327.993562,130 L321.513563,130 L321.513563,96.4 L327.513563,96.4 L339.417563,117.952 L339.417563,96.4 L345.945563,96.4 L345.945563,130 L340.041563,130 L327.993562,108.448 L327.993562,130 Z M376.313562,130 L355.049562,130 L355.049562,96.4 L376.313562,96.4 L376.313562,102.64 L361.529562,102.64 L361.529562,109.216 L374.969562,109.216 L374.969562,115.456 L361.529562,115.456 L361.529562,123.76 L376.313562,123.76 L376.313562,130 Z" id="M1T-DEN-AUGEN-DER-MA-Copy"></path>
                <path d="M5.6305625,157.1875 L3.9795625,157.1875 L2.9915625,148.0875 L4.7465625,148.0875 L5.2665625,153.4175 L6.1115625,150.2975 L7.1515625,150.2975 L7.9965625,153.4175 L8.5165625,148.0875 L10.2715625,148.0875 L9.2835625,157.1875 L7.6325625,157.1875 L6.6315625,152.9495 L5.6305625,157.1875 Z M20.8245625,157.1875 L14.6755625,157.1875 L14.6755625,155.5625 L17.0805625,155.5625 L17.0805625,151.9225 L14.9615625,151.9225 L14.9615625,150.2975 L18.7705625,150.2975 L18.7705625,155.5625 L20.8245625,155.5625 L20.8245625,157.1875 Z M18.7705625,149.6865 L17.0805625,149.6865 L17.0805625,148.0875 L18.7705625,148.0875 L18.7705625,149.6865 Z M27.1135625,155.3415 L27.1135625,151.9225 L25.8395625,151.9225 L25.8395625,150.2975 L27.1135625,150.2975 L27.1135625,148.0875 L28.8035625,148.0875 L28.8035625,150.2975 L31.6375625,150.2975 L31.6375625,151.9225 L28.8035625,151.9225 L28.8035625,155.2115 C28.7905625,155.3675 28.8555625,155.7185 29.4015625,155.7575 C29.9215625,155.7575 30.1555625,155.5365 30.2725625,154.6395 L31.8585625,154.8995 C31.5595625,156.7585 30.7015625,157.3825 29.4015625,157.3825 C28.7385625,157.3825 28.1925625,157.2005 27.7635625,156.8235 C27.3345625,156.4465 27.1135625,155.9525 27.1135625,155.3415 Z M38.7585625,157.1875 L37.0685625,157.1875 L37.0685625,148.0875 L38.7585625,148.0875 L38.7585625,150.4795 C39.1875625,150.2325 39.6425625,150.1025 40.1495625,150.1025 C40.9425625,150.1025 41.5925625,150.3755 42.0995625,150.9345 C42.6065625,151.4805 42.8665625,152.1695 42.8665625,153.0145 L42.8665625,157.1875 L41.1765625,157.1875 L41.1765625,152.9755 C41.1765625,152.2085 40.7735625,151.7275 39.9545625,151.7275 C39.1615625,151.7275 38.7585625,152.1695 38.7585625,152.8585 L38.7585625,157.1875 Z M60.2935625,155.3415 L60.2935625,151.9225 L59.0195625,151.9225 L59.0195625,150.2975 L60.2935625,150.2975 L60.2935625,148.0875 L61.9835625,148.0875 L61.9835625,150.2975 L64.8175625,150.2975 L64.8175625,151.9225 L61.9835625,151.9225 L61.9835625,155.2115 C61.9705625,155.3675 62.0355625,155.7185 62.5815625,155.7575 C63.1015625,155.7575 63.3355625,155.5365 63.4525625,154.6395 L65.0385625,154.8995 C64.7395625,156.7585 63.8815625,157.3825 62.5815625,157.3825 C61.9185625,157.3825 61.3725625,157.2005 60.9435625,156.8235 C60.5145625,156.4465 60.2935625,155.9525 60.2935625,155.3415 Z M71.9385625,157.1875 L70.2485625,157.1875 L70.2485625,148.0875 L71.9385625,148.0875 L71.9385625,150.4795 C72.3675625,150.2325 72.8225625,150.1025 73.3295625,150.1025 C74.1225625,150.1025 74.7725625,150.3755 75.2795625,150.9345 C75.7865625,151.4805 76.0465625,152.1695 76.0465625,153.0145 L76.0465625,157.1875 L74.3565625,157.1875 L74.3565625,152.9755 C74.3565625,152.2085 73.9535625,151.7275 73.1345625,151.7275 C72.3415625,151.7275 71.9385625,152.1695 71.9385625,152.8585 L71.9385625,157.1875 Z M85.3645625,154.9125 L86.9245625,155.4455 C86.5215625,156.5765 85.5595625,157.3825 84.1165625,157.3825 C83.1805625,157.3825 82.4265625,157.0705 81.8675625,156.4335 C81.3085625,155.7965 81.0225625,154.8995 81.0225625,153.7425 C81.0225625,152.5855 81.2955625,151.7015 81.8415625,151.0645 C82.4005625,150.4275 83.1415625,150.1025 84.0645625,150.1025 C84.9875625,150.1025 85.7285625,150.4275 86.2875625,151.0645 C86.8465625,151.7015 87.1325625,152.5855 87.1325625,153.7425 L87.1325625,154.2495 L82.7385625,154.2495 C82.8295625,155.2765 83.2195625,155.7575 84.0905625,155.7575 C84.7275625,155.7575 85.1565625,155.4715 85.3645625,154.9125 Z M82.8035625,152.7805 L85.3255625,152.7805 C85.1565625,152.0785 84.7405625,151.7275 84.0645625,151.7275 C83.4015625,151.7275 82.9855625,152.0785 82.8035625,152.7805 Z M107.484563,154.9125 L109.044563,155.4455 C108.641563,156.5765 107.679563,157.3825 106.236563,157.3825 C105.300563,157.3825 104.546563,157.0705 103.987563,156.4335 C103.428563,155.7965 103.142563,154.8995 103.142563,153.7425 C103.142563,152.5855 103.415563,151.7015 103.961563,151.0645 C104.520563,150.4275 105.261563,150.1025 106.184563,150.1025 C107.107563,150.1025 107.848563,150.4275 108.407563,151.0645 C108.966563,151.7015 109.252563,152.5855 109.252563,153.7425 L109.252563,154.2495 L104.858563,154.2495 C104.949563,155.2765 105.339563,155.7575 106.210563,155.7575 C106.847563,155.7575 107.276563,155.4715 107.484563,154.9125 Z M104.923563,152.7805 L107.445563,152.7805 C107.276563,152.0785 106.860563,151.7275 106.184563,151.7275 C105.521563,151.7275 105.105563,152.0785 104.923563,152.7805 Z M114.150563,159.8265 L113.916563,159.6705 L114.566563,158.3705 C114.943563,158.6175 115.255563,158.7345 115.528563,158.7345 C115.840563,158.7345 116.048563,158.5915 116.139563,158.3185 L116.698563,156.8105 L113.942563,150.2975 L115.710563,150.2975 L117.478563,154.6395 L119.142563,150.2975 L120.884563,150.2975 L117.478563,159.0335 C117.153563,159.8785 116.568563,160.2945 115.710563,160.2945 C115.138563,160.2945 114.462563,160.0345 114.150563,159.8265 Z M129.604563,154.9125 L131.164563,155.4455 C130.761563,156.5765 129.799563,157.3825 128.356563,157.3825 C127.420563,157.3825 126.666563,157.0705 126.107563,156.4335 C125.548563,155.7965 125.262563,154.8995 125.262563,153.7425 C125.262563,152.5855 125.535563,151.7015 126.081563,151.0645 C126.640563,150.4275 127.381563,150.1025 128.304563,150.1025 C129.227563,150.1025 129.968563,150.4275 130.527563,151.0645 C131.086563,151.7015 131.372563,152.5855 131.372563,153.7425 L131.372563,154.2495 L126.978563,154.2495 C127.069563,155.2765 127.459563,155.7575 128.330563,155.7575 C128.967563,155.7575 129.396563,155.4715 129.604563,154.9125 Z M127.043563,152.7805 L129.565563,152.7805 C129.396563,152.0785 128.980563,151.7275 128.304563,151.7275 C127.641563,151.7275 127.225563,152.0785 127.043563,152.7805 Z M136.400563,154.8215 L137.960563,154.5355 C138.103563,155.3805 138.584563,155.8095 139.429563,155.8095 C140.248563,155.8095 140.625563,155.4845 140.625563,155.1075 C140.625563,154.8995 140.469563,154.7565 140.274563,154.6525 C140.170563,154.5875 139.910563,154.4965 139.806563,154.4835 C139.702563,154.4445 139.390563,154.3795 139.338563,154.3665 C138.753563,154.2235 138.454563,154.1325 137.934563,153.9115 C137.206563,153.5735 136.816563,153.0925 136.764563,152.1955 C136.764563,151.5455 137.258563,150.1025 139.377563,150.1025 C140.885563,150.1025 141.795563,151.0125 142.107563,152.1565 L140.612563,152.4815 C140.391563,151.9225 139.975563,151.6495 139.377563,151.6495 C138.688563,151.6495 138.441563,151.9485 138.441563,152.2085 C138.441563,152.5595 138.792563,152.6895 139.741563,152.9365 L140.248563,153.0665 C140.326563,153.0795 140.482563,153.1315 140.729563,153.2095 C140.976563,153.2875 141.145563,153.3525 141.236563,153.4175 C141.431563,153.5215 141.860563,153.7815 142.003563,154.0415 C142.146563,154.2885 142.302563,154.6785 142.302563,155.1075 C142.302563,155.6925 142.068563,156.2255 141.587563,156.6935 C141.106563,157.1485 140.391563,157.3825 139.429563,157.3825 C138.402563,157.3825 137.596563,157.0185 137.141563,156.4855 C136.686563,155.9525 136.465563,155.3935 136.400563,154.8215 Z M160.444563,155.2895 C160.665563,155.6015 161.003563,155.7575 161.471563,155.7575 C161.939563,155.7575 162.277563,155.6015 162.485563,155.2895 C162.706563,154.9645 162.810563,154.4575 162.810563,153.7425 C162.810563,153.0275 162.706563,152.5205 162.485563,152.2085 C162.277563,151.8835 161.939563,151.7275 161.471563,151.7275 C161.003563,151.7275 160.665563,151.8835 160.444563,152.2085 C160.236563,152.5205 160.132563,153.0275 160.132563,153.7425 C160.132563,154.4575 160.236563,154.9645 160.444563,155.2895 Z M163.668563,156.4335 C163.122563,157.0705 162.394563,157.3825 161.471563,157.3825 C160.548563,157.3825 159.820563,157.0705 159.261563,156.4335 C158.715563,155.7965 158.442563,154.8995 158.442563,153.7425 C158.442563,152.5855 158.715563,151.7015 159.261563,151.0645 C159.820563,150.4275 160.548563,150.1025 161.471563,150.1025 C162.394563,150.1025 163.122563,150.4275 163.668563,151.0645 C164.227563,151.7015 164.500563,152.5855 164.500563,153.7425 C164.500563,154.8995 164.227563,155.7965 163.668563,156.4335 Z M172.648563,157.1875 L170.958563,157.1875 L170.958563,153.1055 L169.684563,153.1055 L169.684563,151.5325 L170.958563,151.5325 L170.958563,149.9335 C170.958563,149.3225 171.179563,148.8285 171.608563,148.4515 C172.037563,148.0745 172.583563,147.8925 173.246563,147.8925 C174.611563,147.8925 175.612563,148.7505 175.729563,150.3495 L174.156563,150.5965 C174.065563,149.8815 173.766563,149.5175 173.246563,149.5175 C172.687563,149.5175 172.648563,149.9465 172.648563,150.0505 L172.648563,151.5325 L175.482563,151.5325 L175.482563,153.1055 L172.648563,153.1055 L172.648563,157.1875 Z M193.013563,155.3415 L193.013563,151.9225 L191.739563,151.9225 L191.739563,150.2975 L193.013563,150.2975 L193.013563,148.0875 L194.703563,148.0875 L194.703563,150.2975 L197.537563,150.2975 L197.537563,151.9225 L194.703563,151.9225 L194.703563,155.2115 C194.690563,155.3675 194.755563,155.7185 195.301563,155.7575 C195.821563,155.7575 196.055563,155.5365 196.172563,154.6395 L197.758563,154.8995 C197.459563,156.7585 196.601563,157.3825 195.301563,157.3825 C194.638563,157.3825 194.092563,157.2005 193.663563,156.8235 C193.234563,156.4465 193.013563,155.9525 193.013563,155.3415 Z M204.658563,157.1875 L202.968563,157.1875 L202.968563,148.0875 L204.658563,148.0875 L204.658563,150.4795 C205.087563,150.2325 205.542563,150.1025 206.049563,150.1025 C206.842563,150.1025 207.492563,150.3755 207.999563,150.9345 C208.506563,151.4805 208.766563,152.1695 208.766563,153.0145 L208.766563,157.1875 L207.076563,157.1875 L207.076563,152.9755 C207.076563,152.2085 206.673563,151.7275 205.854563,151.7275 C205.061563,151.7275 204.658563,152.1695 204.658563,152.8585 L204.658563,157.1875 Z M218.084563,154.9125 L219.644563,155.4455 C219.241563,156.5765 218.279563,157.3825 216.836563,157.3825 C215.900563,157.3825 215.146563,157.0705 214.587563,156.4335 C214.028563,155.7965 213.742563,154.8995 213.742563,153.7425 C213.742563,152.5855 214.015563,151.7015 214.561563,151.0645 C215.120563,150.4275 215.861563,150.1025 216.784563,150.1025 C217.707563,150.1025 218.448563,150.4275 219.007563,151.0645 C219.566563,151.7015 219.852563,152.5855 219.852563,153.7425 L219.852563,154.2495 L215.458563,154.2495 C215.549563,155.2765 215.939563,155.7575 216.810563,155.7575 C217.447563,155.7575 217.876563,155.4715 218.084563,154.9125 Z M215.523563,152.7805 L218.045563,152.7805 C217.876563,152.0785 217.460563,151.7275 216.784563,151.7275 C216.121563,151.7275 215.705563,152.0785 215.523563,152.7805 Z M237.188563,157.1875 L235.498563,157.1875 L235.498563,150.2975 L237.136563,150.2975 L237.136563,150.5055 C237.461563,150.2325 237.825563,150.1025 238.228563,150.1025 C238.735563,150.1025 239.177563,150.3235 239.333563,150.4925 L239.463563,150.6225 L239.606563,150.4795 C239.749563,150.3625 240.243563,150.1025 240.724563,150.1025 C241.725563,150.1025 242.453563,150.7915 242.453563,151.8315 L242.453563,157.1875 L240.789563,157.1875 L240.789563,152.1175 C240.789563,152.0395 240.737563,151.7275 240.282563,151.7275 C239.931563,151.7275 239.814563,151.9225 239.814563,152.0785 L239.814563,157.1875 L238.150563,157.1875 L238.150563,152.1175 C238.150563,152.0395 238.098563,151.7275 237.643563,151.7275 C237.318563,151.7275 237.188563,151.9225 237.188563,152.0785 L237.188563,157.1875 Z M248.417563,152.6375 L246.844563,152.3775 C246.909563,151.6625 247.221563,151.1165 247.754563,150.7135 C248.300563,150.3105 248.911563,150.1025 249.587563,150.1025 C250.328563,150.1025 250.952563,150.3105 251.485563,150.7265 C252.018563,151.1425 252.291563,151.6885 252.291563,152.3515 L252.291563,155.4715 C252.291563,155.6665 252.421563,155.7575 252.681563,155.7575 L252.928563,155.7185 L253.201563,157.0835 C252.863563,157.2785 252.512563,157.3825 252.161563,157.3825 C251.758563,157.3825 251.329563,157.1875 251.160563,157.0315 L251.030563,156.9145 C250.601563,157.2265 250.042563,157.3825 249.379563,157.3825 C247.767563,157.3825 246.714563,156.5245 246.714563,155.1595 C246.714563,153.7685 247.637563,153.2485 249.496563,152.9885 C250.237563,152.8845 250.601563,152.7545 250.601563,152.3905 C250.601563,151.9485 250.289563,151.7275 249.665563,151.7275 C248.937563,151.7275 248.521563,151.9225 248.417563,152.6375 Z M250.601563,155.0425 L250.601563,154.0155 L250.575563,154.0415 C250.536563,154.0805 250.341563,154.1975 249.821563,154.2755 C249.353563,154.3405 249.145563,154.3795 248.833563,154.4965 C248.534563,154.6135 248.404563,154.8085 248.404563,155.1075 C248.404563,155.5365 248.768563,155.7575 249.509563,155.7575 C249.626563,155.7575 249.756563,155.7445 249.899563,155.7185 C250.198563,155.6665 250.601563,155.4195 250.601563,155.0425 Z M262.363563,154.5745 L263.975563,154.8345 C263.884563,155.5885 263.585563,156.1995 263.052563,156.6805 C262.519563,157.1485 261.869563,157.3825 261.076563,157.3825 C259.243563,157.3825 258.047563,156.0435 258.047563,153.7425 C258.047563,151.4415 259.243563,150.1025 261.076563,150.1025 C261.869563,150.1025 262.519563,150.3365 263.052563,150.8175 C263.585563,151.2855 263.884563,151.8965 263.975563,152.6505 L262.363563,152.9105 C262.246563,152.1175 261.830563,151.7275 261.089563,151.7275 C260.140563,151.7275 259.737563,152.3255 259.737563,153.7425 C259.737563,155.1595 260.140563,155.7575 261.076563,155.7575 C261.817563,155.7575 262.246563,155.3675 262.363563,154.5745 Z M271.018563,157.1875 L269.328563,157.1875 L269.328563,148.0875 L271.018563,148.0875 L271.018563,150.4795 C271.447563,150.2325 271.902563,150.1025 272.409563,150.1025 C273.202563,150.1025 273.852563,150.3755 274.359563,150.9345 C274.866563,151.4805 275.126563,152.1695 275.126563,153.0145 L275.126563,157.1875 L273.436563,157.1875 L273.436563,152.9755 C273.436563,152.2085 273.033563,151.7275 272.214563,151.7275 C271.421563,151.7275 271.018563,152.1695 271.018563,152.8585 L271.018563,157.1875 Z M286.264563,157.1875 L280.115563,157.1875 L280.115563,155.5625 L282.520563,155.5625 L282.520563,151.9225 L280.401563,151.9225 L280.401563,150.2975 L284.210563,150.2975 L284.210563,155.5625 L286.264563,155.5625 L286.264563,157.1875 Z M284.210563,149.6865 L282.520563,149.6865 L282.520563,148.0875 L284.210563,148.0875 L284.210563,149.6865 Z M293.034563,157.1875 L291.344563,157.1875 L291.344563,150.2975 L292.982563,150.2975 L292.982563,150.6355 C293.385563,150.2845 293.866563,150.1025 294.425563,150.1025 C295.218563,150.1025 295.868563,150.3755 296.375563,150.9345 C296.882563,151.4805 297.129563,152.1695 297.129563,153.0145 L297.129563,157.1875 L295.439563,157.1875 L295.439563,152.9625 C295.439563,152.2215 295.049563,151.7275 294.230563,151.7275 C293.437563,151.7275 293.034563,152.1565 293.034563,152.8455 L293.034563,157.1875 Z M306.564563,154.9125 L308.124563,155.4455 C307.721563,156.5765 306.759563,157.3825 305.316563,157.3825 C304.380563,157.3825 303.626563,157.0705 303.067563,156.4335 C302.508563,155.7965 302.222563,154.8995 302.222563,153.7425 C302.222563,152.5855 302.495563,151.7015 303.041563,151.0645 C303.600563,150.4275 304.341563,150.1025 305.264563,150.1025 C306.187563,150.1025 306.928563,150.4275 307.487563,151.0645 C308.046563,151.7015 308.332563,152.5855 308.332563,153.7425 L308.332563,154.2495 L303.938563,154.2495 C304.029563,155.2765 304.419563,155.7575 305.290563,155.7575 C305.927563,155.7575 306.356563,155.4715 306.564563,154.9125 Z M304.003563,152.7805 L306.525563,152.7805 C306.356563,152.0785 305.940563,151.7275 305.264563,151.7275 C304.601563,151.7275 304.185563,152.0785 304.003563,152.7805 Z M313.360563,154.8215 L314.920563,154.5355 C315.063563,155.3805 315.544563,155.8095 316.389563,155.8095 C317.208563,155.8095 317.585563,155.4845 317.585563,155.1075 C317.585563,154.8995 317.429563,154.7565 317.234563,154.6525 C317.130563,154.5875 316.870563,154.4965 316.766563,154.4835 C316.662563,154.4445 316.350563,154.3795 316.298563,154.3665 C315.713563,154.2235 315.414563,154.1325 314.894563,153.9115 C314.166563,153.5735 313.776563,153.0925 313.724563,152.1955 C313.724563,151.5455 314.218563,150.1025 316.337563,150.1025 C317.845563,150.1025 318.755563,151.0125 319.067563,152.1565 L317.572563,152.4815 C317.351563,151.9225 316.935563,151.6495 316.337563,151.6495 C315.648563,151.6495 315.401563,151.9485 315.401563,152.2085 C315.401563,152.5595 315.752563,152.6895 316.701563,152.9365 L317.208563,153.0665 C317.286563,153.0795 317.442563,153.1315 317.689563,153.2095 C317.936563,153.2875 318.105563,153.3525 318.196563,153.4175 C318.391563,153.5215 318.820563,153.7815 318.963563,154.0415 C319.106563,154.2885 319.262563,154.6785 319.262563,155.1075 C319.262563,155.6925 319.028563,156.2255 318.547563,156.6935 C318.066563,157.1485 317.351563,157.3825 316.389563,157.3825 C315.362563,157.3825 314.556563,157.0185 314.101563,156.4855 C313.646563,155.9525 313.425563,155.3935 313.360563,154.8215 Z M324.371563,157.1875 L322.096563,157.1875 L322.096563,155.0165 L324.371563,155.0165 L324.371563,157.1875 Z" id="With-the-eyes-of-the-Copy"></path>
            </g>
        </g>
    </g>
</svg>