<?xml version="1.0" encoding="UTF-8"?>
<svg width="125px" height="116px" viewBox="0 0 125 116" version="1.1" xmlns="http://www.w3.org/2000/svg" xmlns:xlink="http://www.w3.org/1999/xlink">
    <!-- Generator: Sketch 50.2 (55047) - http://www.bohemiancoding.com/sketch -->
    <title>logo-tsb</title>
    <desc>Created with Sketch.</desc>
    <defs></defs>
    <g id="Page-1" stroke="none" stroke-width="1" fill="none" fill-rule="evenodd">
        <g id="logo-tsb" fill="#FFFFFF" fill-rule="nonzero">
            <path d="M105.33945,73.635 C105.03645,73.722 104.69145,73.749 104.31645,73.749 C102.66345,73.749 102.08745,73.047 102.08745,70.242 C102.08745,67.476 102.67845,66.729 104.60445,66.729 C105.41145,66.729 106.28745,66.903 106.96245,67.176 L107.19045,65.166 C106.44645,64.863 105.41145,64.674 104.47545,64.674 C101.15445,64.674 99.71745,66.414 99.71745,70.269 C99.71745,74.037 100.99545,75.849 104.37645,75.849 C105.46845,75.849 106.63245,75.606 107.36445,75.258 L107.36445,69.807 L105.33945,69.807 L105.33945,73.635 Z M96.63945,70.254 C96.63945,74.325 95.37645,75.834 92.31345,75.834 C89.30745,75.834 87.98145,74.238 87.98145,70.254 C87.98145,66.27 89.25045,64.689 92.31345,64.689 C95.37645,64.689 96.63945,66.27 96.63945,70.254 Z M94.26945,70.254 C94.26945,67.392 93.78045,66.786 92.31345,66.786 C90.85845,66.786 90.35445,67.407 90.35445,70.254 C90.35445,73.116 90.85845,73.752 92.32545,73.752 C93.78045,73.752 94.26945,73.101 94.26945,70.254 Z M37.95345,75.834 C38.80245,75.834 39.73545,75.618 40.36845,75.303 L40.14045,73.389 C39.60645,73.635 38.98845,73.794 38.28645,73.794 C36.51345,73.794 35.89545,73.002 35.89545,70.182 C35.89545,67.536 36.48345,66.771 38.24145,66.771 C38.94645,66.771 39.61845,66.918 40.10745,67.104 L40.34145,65.106 C39.79245,64.863 38.84445,64.674 38.08545,64.674 C34.93245,64.674 33.52545,66.483 33.52545,70.182 C33.52545,74.112 34.94745,75.834 37.95345,75.834 Z M111.20145,75.645 L113.51445,75.645 L113.51445,64.863 L112.35945,64.863 L111.20145,64.863 L111.20145,75.645 Z M71.42445,75.834 C68.42145,75.834 67.09845,74.238 67.09845,70.257 C67.09845,66.27 68.36445,64.689 71.42445,64.689 C74.49045,64.689 75.75345,66.27 75.75345,70.257 C75.75345,74.325 74.49045,75.834 71.42445,75.834 Z M73.38345,70.257 C73.38345,67.392 72.89445,66.786 71.42445,66.786 C69.97245,66.786 69.46845,67.407 69.46845,70.257 C69.46845,73.116 69.97245,73.749 71.43945,73.749 C72.89445,73.749 73.38345,73.101 73.38345,70.257 Z M30.45345,73.605 L26.00745,73.605 L26.00745,71.046 L29.56245,71.046 L29.56245,69.15 L26.00745,69.15 L26.00745,66.93 L30.24045,66.93 L30.19545,64.863 L23.75445,64.863 L23.75445,75.645 L30.39645,75.645 L30.45345,73.605 Z M46.01145,71.175 L49.35045,71.175 L49.35045,75.645 L51.60645,75.645 L51.60645,64.863 L49.35045,64.863 L49.35045,69.078 L46.01145,69.078 L46.01145,64.863 L43.75545,64.863 L43.75545,75.645 L46.01145,75.645 L46.01145,71.175 Z M85.62645,73.548 L81.65745,73.548 L81.65745,64.86 L79.38945,64.86 L79.38945,75.645 L85.57245,75.645 L85.62645,73.548 Z M119.82945,73.605 L119.82945,71.046 L123.38445,71.046 L123.38445,69.15 L119.82945,69.15 L119.82945,66.93 L124.05645,66.93 L124.01445,64.863 L117.57345,64.863 L117.57345,75.645 L124.21545,75.645 L124.27245,73.605 L119.82945,73.605 Z M15.63645,75.645 L17.91945,75.645 L17.91945,66.975 L20.53845,66.975 L20.49645,64.863 L13.07445,64.863 L13.01445,66.975 L15.63645,66.975 L15.63645,75.645 Z M63.56445,75.645 L63.56445,64.863 L61.58145,64.863 L61.58145,70.239 L61.60845,71.388 L61.58145,71.403 L57.58245,64.863 L55.64145,64.863 L55.64145,75.645 L57.63645,75.645 L57.63645,69.981 L57.62445,68.817 L57.65145,68.802 L58.25445,69.807 L61.95345,75.645 L63.56445,75.645 Z M56.57145,85.275 L49.15245,85.275 L49.09545,87.387 L51.71145,87.387 L51.71145,96.06 L53.99745,96.06 L53.99745,87.387 L56.61645,87.387 L56.57145,85.275 Z M67.42845,92.397 L67.42845,85.275 L65.17245,85.275 L65.17245,92.367 C65.17245,93.618 64.68045,94.134 63.47145,94.134 C62.26245,94.134 61.75845,93.603 61.75845,92.367 L61.75845,85.275 L59.49045,85.275 L59.49045,92.397 C59.49045,94.983 60.85245,96.246 63.47145,96.246 C66.09045,96.246 67.42845,94.983 67.42845,92.397 Z M46.02045,89.793 L42.49545,89.793 L42.49545,87.387 L46.71045,87.387 L46.68045,85.275 L40.23945,85.275 L40.23945,96.06 L42.49545,96.06 L42.49545,91.791 L45.99045,91.791 L46.02045,89.793 Z M77.23545,90.654 L77.26545,91.803 L77.23545,91.818 L73.23645,85.275 L71.29545,85.275 L71.29545,96.06 L73.29345,96.06 L73.29345,90.396 L73.27845,89.229 L73.30845,89.217 L73.91445,90.222 L77.61045,96.06 L79.21845,96.06 L79.21845,85.275 L77.23545,85.275 L77.23545,90.654 Z M16.95945,94.221 C15.99345,94.221 15.11745,93.948 14.28345,93.504 L13.98345,95.487 C14.81745,95.976 15.88245,96.246 17.00145,96.246 C19.33245,96.246 20.68545,94.983 20.68545,92.868 C20.68545,89.331 16.19745,89.964 16.19745,88.239 C16.19745,87.633 16.54245,87.174 17.76345,87.174 C18.49845,87.174 19.27545,87.315 20.07945,87.588 L20.34045,85.638 C19.59345,85.29 18.60045,85.104 17.62245,85.104 C15.12945,85.104 14.02245,86.514 14.02245,88.338 C14.02245,91.863 18.51345,91.245 18.51345,93.015 C18.51345,93.804 18.03945,94.221 16.95945,94.221 Z M25.75845,96.06 L28.04145,96.06 L28.04145,87.387 L30.66045,87.387 L30.61845,85.275 L23.19645,85.275 L23.13945,87.387 L25.75845,87.387 L25.75845,96.06 Z M36.12045,85.275 L34.96545,85.275 L33.80745,85.275 L33.80745,96.06 L36.12045,96.06 L36.12045,85.275 Z M88.45545,94.05 C88.15245,94.137 87.81045,94.164 87.43545,94.164 C85.77945,94.164 85.20345,93.459 85.20345,90.654 C85.20345,87.891 85.79445,87.144 87.72345,87.144 C88.53045,87.144 89.40345,87.315 90.07845,87.588 L90.30945,85.578 C89.56245,85.275 88.53045,85.092 87.59145,85.092 C84.27045,85.092 82.83345,86.829 82.83345,90.684 C82.83345,94.452 84.10845,96.261 87.49245,96.261 C88.58745,96.261 89.74845,96.015 90.48045,95.673 L90.48045,90.222 L88.45545,90.222 L88.45545,94.05 Z M68.15445,105.09 L68.15445,112.119 L68.18145,113.271 L68.15445,113.286 L67.56345,112.281 L63.28845,105.09 L62.04345,105.09 L62.04345,115.872 L63.26145,115.872 L63.26145,108.627 L63.24645,107.463 L63.27945,107.448 L63.85245,108.456 L68.35545,115.872 L69.34545,115.872 L69.34545,105.09 L68.15445,105.09 Z M55.86645,115.872 L57.25845,115.872 L57.25845,105.09 L56.56245,105.09 L55.86645,105.09 L55.86645,115.872 Z M19.50045,110.166 C20.63745,110.454 21.31245,111.273 21.31245,112.812 C21.31245,114.753 20.39445,115.872 18.09045,115.872 L14.43645,115.872 L14.43645,105.09 L17.96145,105.09 C19.93245,105.09 20.92545,105.966 20.92545,107.766 C20.92545,109.086 20.34945,109.833 19.50045,110.136 L19.50045,110.166 Z M15.75945,109.734 L17.97645,109.734 C19.09845,109.734 19.60245,109.188 19.60245,108.006 C19.60245,106.758 19.08645,106.323 17.91945,106.323 L15.75945,106.323 L15.75945,109.734 Z M18.10845,114.669 C19.28745,114.669 19.94745,114.18 19.94745,112.71 C19.94745,111.387 19.34445,110.841 18.04845,110.841 L15.75945,110.841 L15.75945,114.669 L18.10845,114.669 Z M40.14045,110.997 L42.71445,115.872 L41.10345,115.872 L38.88645,111.258 L37.00245,111.258 L37.00245,115.872 L35.63745,115.872 L35.63745,105.09 L38.87445,105.09 C41.04645,105.09 42.06645,106.023 42.06645,108.138 C42.06645,109.833 41.38845,110.769 40.14045,110.997 Z M40.65945,108.192 C40.65945,106.785 40.11045,106.311 38.88645,106.311 L37.00245,106.311 L37.00245,110.136 L38.83245,110.136 C40.09545,110.136 40.65945,109.647 40.65945,108.192 Z M25.47945,105.09 L25.47945,115.872 L31.64745,115.872 L31.68945,114.597 L26.84445,114.597 L26.84445,110.853 L30.79545,110.853 L30.79545,109.662 L26.84445,109.662 L26.84445,106.383 L31.45845,106.383 L31.43145,105.09 L25.47945,105.09 Z M47.73945,105.09 L47.73945,114.567 L52.20045,114.567 L52.15245,115.872 L46.36245,115.872 L46.36245,105.09 L47.73945,105.09 Z" id="Fill-293"></path>
            <path d="M7.31355,53.1435 L55.12155,3.9495 L1.85955,36.8055 L7.31355,53.1435 Z M73.49055,32.0715 L66.33255,47.8305 L23.05455,40.4565 L24.21255,39.2595 L64.94055,46.1985 L57.28755,3.6945 L6.72555,55.7205 L0.22755,36.2625 L14.64855,6.1455 L33.45855,14.4315 L32.03955,15.3075 L15.31155,7.9365 L2.43555,34.8375 L58.10955,0.4935 L66.11655,44.9835 L71.66355,32.7705 L64.44255,29.5875 L64.14855,27.9555 L73.49055,32.0715 Z M37.17255,16.2915 L36.46455,16.7295 L39.77955,18.1905 L40.28955,17.6655 L37.17255,16.2915 Z M43.73655,19.1835 L43.22655,19.7085 L60.44055,27.2955 L60.29355,26.4795 L43.73655,19.1835 Z M3.40155,37.1235 L4.30155,36.5685 L19.60455,38.9415 L19.02255,39.5475 L3.40155,37.1235 Z" id="Fill-296"></path>
        </g>
    </g>
</svg>