<?xml version="1.0" encoding="UTF-8"?>
<svg width="322px" height="14px" viewBox="0 0 322 14" version="1.1" xmlns="http://www.w3.org/2000/svg" xmlns:xlink="http://www.w3.org/1999/xlink">
    <!-- Generator: Sketch 50.2 (55047) - http://www.bohemiancoding.com/sketch -->
    <title>With the eyes of the Copy</title>
    <desc>Created with Sketch.</desc>
    <defs></defs>
    <g id="Page-1" stroke="none" stroke-width="1" fill="none" fill-rule="evenodd">
        <g id="Artboard-2-Copy" transform="translate(-1340.000000, -3226.000000)" fill="#002448">
            <path d="M1342.63056,3236.1875 L1340.97956,3236.1875 L1339.99156,3227.0875 L1341.74656,3227.0875 L1342.26656,3232.4175 L1343.11156,3229.2975 L1344.15156,3229.2975 L1344.99656,3232.4175 L1345.51656,3227.0875 L1347.27156,3227.0875 L1346.28356,3236.1875 L1344.63256,3236.1875 L1343.63156,3231.9495 L1342.63056,3236.1875 Z M1357.82456,3236.1875 L1351.67556,3236.1875 L1351.67556,3234.5625 L1354.08056,3234.5625 L1354.08056,3230.9225 L1351.96156,3230.9225 L1351.96156,3229.2975 L1355.77056,3229.2975 L1355.77056,3234.5625 L1357.82456,3234.5625 L1357.82456,3236.1875 Z M1355.77056,3228.6865 L1354.08056,3228.6865 L1354.08056,3227.0875 L1355.77056,3227.0875 L1355.77056,3228.6865 Z M1364.11356,3234.3415 L1364.11356,3230.9225 L1362.83956,3230.9225 L1362.83956,3229.2975 L1364.11356,3229.2975 L1364.11356,3227.0875 L1365.80356,3227.0875 L1365.80356,3229.2975 L1368.63756,3229.2975 L1368.63756,3230.9225 L1365.80356,3230.9225 L1365.80356,3234.2115 C1365.79056,3234.3675 1365.85556,3234.7185 1366.40156,3234.7575 C1366.92156,3234.7575 1367.15556,3234.5365 1367.27256,3233.6395 L1368.85856,3233.8995 C1368.55956,3235.7585 1367.70156,3236.3825 1366.40156,3236.3825 C1365.73856,3236.3825 1365.19256,3236.2005 1364.76356,3235.8235 C1364.33456,3235.4465 1364.11356,3234.9525 1364.11356,3234.3415 Z M1375.75856,3236.1875 L1374.06856,3236.1875 L1374.06856,3227.0875 L1375.75856,3227.0875 L1375.75856,3229.4795 C1376.18756,3229.2325 1376.64256,3229.1025 1377.14956,3229.1025 C1377.94256,3229.1025 1378.59256,3229.3755 1379.09956,3229.9345 C1379.60656,3230.4805 1379.86656,3231.1695 1379.86656,3232.0145 L1379.86656,3236.1875 L1378.17656,3236.1875 L1378.17656,3231.9755 C1378.17656,3231.2085 1377.77356,3230.7275 1376.95456,3230.7275 C1376.16156,3230.7275 1375.75856,3231.1695 1375.75856,3231.8585 L1375.75856,3236.1875 Z M1397.29356,3234.3415 L1397.29356,3230.9225 L1396.01956,3230.9225 L1396.01956,3229.2975 L1397.29356,3229.2975 L1397.29356,3227.0875 L1398.98356,3227.0875 L1398.98356,3229.2975 L1401.81756,3229.2975 L1401.81756,3230.9225 L1398.98356,3230.9225 L1398.98356,3234.2115 C1398.97056,3234.3675 1399.03556,3234.7185 1399.58156,3234.7575 C1400.10156,3234.7575 1400.33556,3234.5365 1400.45256,3233.6395 L1402.03856,3233.8995 C1401.73956,3235.7585 1400.88156,3236.3825 1399.58156,3236.3825 C1398.91856,3236.3825 1398.37256,3236.2005 1397.94356,3235.8235 C1397.51456,3235.4465 1397.29356,3234.9525 1397.29356,3234.3415 Z M1408.93856,3236.1875 L1407.24856,3236.1875 L1407.24856,3227.0875 L1408.93856,3227.0875 L1408.93856,3229.4795 C1409.36756,3229.2325 1409.82256,3229.1025 1410.32956,3229.1025 C1411.12256,3229.1025 1411.77256,3229.3755 1412.27956,3229.9345 C1412.78656,3230.4805 1413.04656,3231.1695 1413.04656,3232.0145 L1413.04656,3236.1875 L1411.35656,3236.1875 L1411.35656,3231.9755 C1411.35656,3231.2085 1410.95356,3230.7275 1410.13456,3230.7275 C1409.34156,3230.7275 1408.93856,3231.1695 1408.93856,3231.8585 L1408.93856,3236.1875 Z M1422.36456,3233.9125 L1423.92456,3234.4455 C1423.52156,3235.5765 1422.55956,3236.3825 1421.11656,3236.3825 C1420.18056,3236.3825 1419.42656,3236.0705 1418.86756,3235.4335 C1418.30856,3234.7965 1418.02256,3233.8995 1418.02256,3232.7425 C1418.02256,3231.5855 1418.29556,3230.7015 1418.84156,3230.0645 C1419.40056,3229.4275 1420.14156,3229.1025 1421.06456,3229.1025 C1421.98756,3229.1025 1422.72856,3229.4275 1423.28756,3230.0645 C1423.84656,3230.7015 1424.13256,3231.5855 1424.13256,3232.7425 L1424.13256,3233.2495 L1419.73856,3233.2495 C1419.82956,3234.2765 1420.21956,3234.7575 1421.09056,3234.7575 C1421.72756,3234.7575 1422.15656,3234.4715 1422.36456,3233.9125 Z M1419.80356,3231.7805 L1422.32556,3231.7805 C1422.15656,3231.0785 1421.74056,3230.7275 1421.06456,3230.7275 C1420.40156,3230.7275 1419.98556,3231.0785 1419.80356,3231.7805 Z M1444.48456,3233.9125 L1446.04456,3234.4455 C1445.64156,3235.5765 1444.67956,3236.3825 1443.23656,3236.3825 C1442.30056,3236.3825 1441.54656,3236.0705 1440.98756,3235.4335 C1440.42856,3234.7965 1440.14256,3233.8995 1440.14256,3232.7425 C1440.14256,3231.5855 1440.41556,3230.7015 1440.96156,3230.0645 C1441.52056,3229.4275 1442.26156,3229.1025 1443.18456,3229.1025 C1444.10756,3229.1025 1444.84856,3229.4275 1445.40756,3230.0645 C1445.96656,3230.7015 1446.25256,3231.5855 1446.25256,3232.7425 L1446.25256,3233.2495 L1441.85856,3233.2495 C1441.94956,3234.2765 1442.33956,3234.7575 1443.21056,3234.7575 C1443.84756,3234.7575 1444.27656,3234.4715 1444.48456,3233.9125 Z M1441.92356,3231.7805 L1444.44556,3231.7805 C1444.27656,3231.0785 1443.86056,3230.7275 1443.18456,3230.7275 C1442.52156,3230.7275 1442.10556,3231.0785 1441.92356,3231.7805 Z M1451.15056,3238.8265 L1450.91656,3238.6705 L1451.56656,3237.3705 C1451.94356,3237.6175 1452.25556,3237.7345 1452.52856,3237.7345 C1452.84056,3237.7345 1453.04856,3237.5915 1453.13956,3237.3185 L1453.69856,3235.8105 L1450.94256,3229.2975 L1452.71056,3229.2975 L1454.47856,3233.6395 L1456.14256,3229.2975 L1457.88456,3229.2975 L1454.47856,3238.0335 C1454.15356,3238.8785 1453.56856,3239.2945 1452.71056,3239.2945 C1452.13856,3239.2945 1451.46256,3239.0345 1451.15056,3238.8265 Z M1466.60456,3233.9125 L1468.16456,3234.4455 C1467.76156,3235.5765 1466.79956,3236.3825 1465.35656,3236.3825 C1464.42056,3236.3825 1463.66656,3236.0705 1463.10756,3235.4335 C1462.54856,3234.7965 1462.26256,3233.8995 1462.26256,3232.7425 C1462.26256,3231.5855 1462.53556,3230.7015 1463.08156,3230.0645 C1463.64056,3229.4275 1464.38156,3229.1025 1465.30456,3229.1025 C1466.22756,3229.1025 1466.96856,3229.4275 1467.52756,3230.0645 C1468.08656,3230.7015 1468.37256,3231.5855 1468.37256,3232.7425 L1468.37256,3233.2495 L1463.97856,3233.2495 C1464.06956,3234.2765 1464.45956,3234.7575 1465.33056,3234.7575 C1465.96756,3234.7575 1466.39656,3234.4715 1466.60456,3233.9125 Z M1464.04356,3231.7805 L1466.56556,3231.7805 C1466.39656,3231.0785 1465.98056,3230.7275 1465.30456,3230.7275 C1464.64156,3230.7275 1464.22556,3231.0785 1464.04356,3231.7805 Z M1473.40056,3233.8215 L1474.96056,3233.5355 C1475.10356,3234.3805 1475.58456,3234.8095 1476.42956,3234.8095 C1477.24856,3234.8095 1477.62556,3234.4845 1477.62556,3234.1075 C1477.62556,3233.8995 1477.46956,3233.7565 1477.27456,3233.6525 C1477.17056,3233.5875 1476.91056,3233.4965 1476.80656,3233.4835 C1476.70256,3233.4445 1476.39056,3233.3795 1476.33856,3233.3665 C1475.75356,3233.2235 1475.45456,3233.1325 1474.93456,3232.9115 C1474.20656,3232.5735 1473.81656,3232.0925 1473.76456,3231.1955 C1473.76456,3230.5455 1474.25856,3229.1025 1476.37756,3229.1025 C1477.88556,3229.1025 1478.79556,3230.0125 1479.10756,3231.1565 L1477.61256,3231.4815 C1477.39156,3230.9225 1476.97556,3230.6495 1476.37756,3230.6495 C1475.68856,3230.6495 1475.44156,3230.9485 1475.44156,3231.2085 C1475.44156,3231.5595 1475.79256,3231.6895 1476.74156,3231.9365 L1477.24856,3232.0665 C1477.32656,3232.0795 1477.48256,3232.1315 1477.72956,3232.2095 C1477.97656,3232.2875 1478.14556,3232.3525 1478.23656,3232.4175 C1478.43156,3232.5215 1478.86056,3232.7815 1479.00356,3233.0415 C1479.14656,3233.2885 1479.30256,3233.6785 1479.30256,3234.1075 C1479.30256,3234.6925 1479.06856,3235.2255 1478.58756,3235.6935 C1478.10656,3236.1485 1477.39156,3236.3825 1476.42956,3236.3825 C1475.40256,3236.3825 1474.59656,3236.0185 1474.14156,3235.4855 C1473.68656,3234.9525 1473.46556,3234.3935 1473.40056,3233.8215 Z M1497.44456,3234.2895 C1497.66556,3234.6015 1498.00356,3234.7575 1498.47156,3234.7575 C1498.93956,3234.7575 1499.27756,3234.6015 1499.48556,3234.2895 C1499.70656,3233.9645 1499.81056,3233.4575 1499.81056,3232.7425 C1499.81056,3232.0275 1499.70656,3231.5205 1499.48556,3231.2085 C1499.27756,3230.8835 1498.93956,3230.7275 1498.47156,3230.7275 C1498.00356,3230.7275 1497.66556,3230.8835 1497.44456,3231.2085 C1497.23656,3231.5205 1497.13256,3232.0275 1497.13256,3232.7425 C1497.13256,3233.4575 1497.23656,3233.9645 1497.44456,3234.2895 Z M1500.66856,3235.4335 C1500.12256,3236.0705 1499.39456,3236.3825 1498.47156,3236.3825 C1497.54856,3236.3825 1496.82056,3236.0705 1496.26156,3235.4335 C1495.71556,3234.7965 1495.44256,3233.8995 1495.44256,3232.7425 C1495.44256,3231.5855 1495.71556,3230.7015 1496.26156,3230.0645 C1496.82056,3229.4275 1497.54856,3229.1025 1498.47156,3229.1025 C1499.39456,3229.1025 1500.12256,3229.4275 1500.66856,3230.0645 C1501.22756,3230.7015 1501.50056,3231.5855 1501.50056,3232.7425 C1501.50056,3233.8995 1501.22756,3234.7965 1500.66856,3235.4335 Z M1509.64856,3236.1875 L1507.95856,3236.1875 L1507.95856,3232.1055 L1506.68456,3232.1055 L1506.68456,3230.5325 L1507.95856,3230.5325 L1507.95856,3228.9335 C1507.95856,3228.3225 1508.17956,3227.8285 1508.60856,3227.4515 C1509.03756,3227.0745 1509.58356,3226.8925 1510.24656,3226.8925 C1511.61156,3226.8925 1512.61256,3227.7505 1512.72956,3229.3495 L1511.15656,3229.5965 C1511.06556,3228.8815 1510.76656,3228.5175 1510.24656,3228.5175 C1509.68756,3228.5175 1509.64856,3228.9465 1509.64856,3229.0505 L1509.64856,3230.5325 L1512.48256,3230.5325 L1512.48256,3232.1055 L1509.64856,3232.1055 L1509.64856,3236.1875 Z M1530.01356,3234.3415 L1530.01356,3230.9225 L1528.73956,3230.9225 L1528.73956,3229.2975 L1530.01356,3229.2975 L1530.01356,3227.0875 L1531.70356,3227.0875 L1531.70356,3229.2975 L1534.53756,3229.2975 L1534.53756,3230.9225 L1531.70356,3230.9225 L1531.70356,3234.2115 C1531.69056,3234.3675 1531.75556,3234.7185 1532.30156,3234.7575 C1532.82156,3234.7575 1533.05556,3234.5365 1533.17256,3233.6395 L1534.75856,3233.8995 C1534.45956,3235.7585 1533.60156,3236.3825 1532.30156,3236.3825 C1531.63856,3236.3825 1531.09256,3236.2005 1530.66356,3235.8235 C1530.23456,3235.4465 1530.01356,3234.9525 1530.01356,3234.3415 Z M1541.65856,3236.1875 L1539.96856,3236.1875 L1539.96856,3227.0875 L1541.65856,3227.0875 L1541.65856,3229.4795 C1542.08756,3229.2325 1542.54256,3229.1025 1543.04956,3229.1025 C1543.84256,3229.1025 1544.49256,3229.3755 1544.99956,3229.9345 C1545.50656,3230.4805 1545.76656,3231.1695 1545.76656,3232.0145 L1545.76656,3236.1875 L1544.07656,3236.1875 L1544.07656,3231.9755 C1544.07656,3231.2085 1543.67356,3230.7275 1542.85456,3230.7275 C1542.06156,3230.7275 1541.65856,3231.1695 1541.65856,3231.8585 L1541.65856,3236.1875 Z M1555.08456,3233.9125 L1556.64456,3234.4455 C1556.24156,3235.5765 1555.27956,3236.3825 1553.83656,3236.3825 C1552.90056,3236.3825 1552.14656,3236.0705 1551.58756,3235.4335 C1551.02856,3234.7965 1550.74256,3233.8995 1550.74256,3232.7425 C1550.74256,3231.5855 1551.01556,3230.7015 1551.56156,3230.0645 C1552.12056,3229.4275 1552.86156,3229.1025 1553.78456,3229.1025 C1554.70756,3229.1025 1555.44856,3229.4275 1556.00756,3230.0645 C1556.56656,3230.7015 1556.85256,3231.5855 1556.85256,3232.7425 L1556.85256,3233.2495 L1552.45856,3233.2495 C1552.54956,3234.2765 1552.93956,3234.7575 1553.81056,3234.7575 C1554.44756,3234.7575 1554.87656,3234.4715 1555.08456,3233.9125 Z M1552.52356,3231.7805 L1555.04556,3231.7805 C1554.87656,3231.0785 1554.46056,3230.7275 1553.78456,3230.7275 C1553.12156,3230.7275 1552.70556,3231.0785 1552.52356,3231.7805 Z M1574.18856,3236.1875 L1572.49856,3236.1875 L1572.49856,3229.2975 L1574.13656,3229.2975 L1574.13656,3229.5055 C1574.46156,3229.2325 1574.82556,3229.1025 1575.22856,3229.1025 C1575.73556,3229.1025 1576.17756,3229.3235 1576.33356,3229.4925 L1576.46356,3229.6225 L1576.60656,3229.4795 C1576.74956,3229.3625 1577.24356,3229.1025 1577.72456,3229.1025 C1578.72556,3229.1025 1579.45356,3229.7915 1579.45356,3230.8315 L1579.45356,3236.1875 L1577.78956,3236.1875 L1577.78956,3231.1175 C1577.78956,3231.0395 1577.73756,3230.7275 1577.28256,3230.7275 C1576.93156,3230.7275 1576.81456,3230.9225 1576.81456,3231.0785 L1576.81456,3236.1875 L1575.15056,3236.1875 L1575.15056,3231.1175 C1575.15056,3231.0395 1575.09856,3230.7275 1574.64356,3230.7275 C1574.31856,3230.7275 1574.18856,3230.9225 1574.18856,3231.0785 L1574.18856,3236.1875 Z M1585.41756,3231.6375 L1583.84456,3231.3775 C1583.90956,3230.6625 1584.22156,3230.1165 1584.75456,3229.7135 C1585.30056,3229.3105 1585.91156,3229.1025 1586.58756,3229.1025 C1587.32856,3229.1025 1587.95256,3229.3105 1588.48556,3229.7265 C1589.01856,3230.1425 1589.29156,3230.6885 1589.29156,3231.3515 L1589.29156,3234.4715 C1589.29156,3234.6665 1589.42156,3234.7575 1589.68156,3234.7575 L1589.92856,3234.7185 L1590.20156,3236.0835 C1589.86356,3236.2785 1589.51256,3236.3825 1589.16156,3236.3825 C1588.75856,3236.3825 1588.32956,3236.1875 1588.16056,3236.0315 L1588.03056,3235.9145 C1587.60156,3236.2265 1587.04256,3236.3825 1586.37956,3236.3825 C1584.76756,3236.3825 1583.71456,3235.5245 1583.71456,3234.1595 C1583.71456,3232.7685 1584.63756,3232.2485 1586.49656,3231.9885 C1587.23756,3231.8845 1587.60156,3231.7545 1587.60156,3231.3905 C1587.60156,3230.9485 1587.28956,3230.7275 1586.66556,3230.7275 C1585.93756,3230.7275 1585.52156,3230.9225 1585.41756,3231.6375 Z M1587.60156,3234.0425 L1587.60156,3233.0155 L1587.57556,3233.0415 C1587.53656,3233.0805 1587.34156,3233.1975 1586.82156,3233.2755 C1586.35356,3233.3405 1586.14556,3233.3795 1585.83356,3233.4965 C1585.53456,3233.6135 1585.40456,3233.8085 1585.40456,3234.1075 C1585.40456,3234.5365 1585.76856,3234.7575 1586.50956,3234.7575 C1586.62656,3234.7575 1586.75656,3234.7445 1586.89956,3234.7185 C1587.19856,3234.6665 1587.60156,3234.4195 1587.60156,3234.0425 Z M1599.36356,3233.5745 L1600.97556,3233.8345 C1600.88456,3234.5885 1600.58556,3235.1995 1600.05256,3235.6805 C1599.51956,3236.1485 1598.86956,3236.3825 1598.07656,3236.3825 C1596.24356,3236.3825 1595.04756,3235.0435 1595.04756,3232.7425 C1595.04756,3230.4415 1596.24356,3229.1025 1598.07656,3229.1025 C1598.86956,3229.1025 1599.51956,3229.3365 1600.05256,3229.8175 C1600.58556,3230.2855 1600.88456,3230.8965 1600.97556,3231.6505 L1599.36356,3231.9105 C1599.24656,3231.1175 1598.83056,3230.7275 1598.08956,3230.7275 C1597.14056,3230.7275 1596.73756,3231.3255 1596.73756,3232.7425 C1596.73756,3234.1595 1597.14056,3234.7575 1598.07656,3234.7575 C1598.81756,3234.7575 1599.24656,3234.3675 1599.36356,3233.5745 Z M1608.01856,3236.1875 L1606.32856,3236.1875 L1606.32856,3227.0875 L1608.01856,3227.0875 L1608.01856,3229.4795 C1608.44756,3229.2325 1608.90256,3229.1025 1609.40956,3229.1025 C1610.20256,3229.1025 1610.85256,3229.3755 1611.35956,3229.9345 C1611.86656,3230.4805 1612.12656,3231.1695 1612.12656,3232.0145 L1612.12656,3236.1875 L1610.43656,3236.1875 L1610.43656,3231.9755 C1610.43656,3231.2085 1610.03356,3230.7275 1609.21456,3230.7275 C1608.42156,3230.7275 1608.01856,3231.1695 1608.01856,3231.8585 L1608.01856,3236.1875 Z M1623.26456,3236.1875 L1617.11556,3236.1875 L1617.11556,3234.5625 L1619.52056,3234.5625 L1619.52056,3230.9225 L1617.40156,3230.9225 L1617.40156,3229.2975 L1621.21056,3229.2975 L1621.21056,3234.5625 L1623.26456,3234.5625 L1623.26456,3236.1875 Z M1621.21056,3228.6865 L1619.52056,3228.6865 L1619.52056,3227.0875 L1621.21056,3227.0875 L1621.21056,3228.6865 Z M1630.03456,3236.1875 L1628.34456,3236.1875 L1628.34456,3229.2975 L1629.98256,3229.2975 L1629.98256,3229.6355 C1630.38556,3229.2845 1630.86656,3229.1025 1631.42556,3229.1025 C1632.21856,3229.1025 1632.86856,3229.3755 1633.37556,3229.9345 C1633.88256,3230.4805 1634.12956,3231.1695 1634.12956,3232.0145 L1634.12956,3236.1875 L1632.43956,3236.1875 L1632.43956,3231.9625 C1632.43956,3231.2215 1632.04956,3230.7275 1631.23056,3230.7275 C1630.43756,3230.7275 1630.03456,3231.1565 1630.03456,3231.8455 L1630.03456,3236.1875 Z M1643.56456,3233.9125 L1645.12456,3234.4455 C1644.72156,3235.5765 1643.75956,3236.3825 1642.31656,3236.3825 C1641.38056,3236.3825 1640.62656,3236.0705 1640.06756,3235.4335 C1639.50856,3234.7965 1639.22256,3233.8995 1639.22256,3232.7425 C1639.22256,3231.5855 1639.49556,3230.7015 1640.04156,3230.0645 C1640.60056,3229.4275 1641.34156,3229.1025 1642.26456,3229.1025 C1643.18756,3229.1025 1643.92856,3229.4275 1644.48756,3230.0645 C1645.04656,3230.7015 1645.33256,3231.5855 1645.33256,3232.7425 L1645.33256,3233.2495 L1640.93856,3233.2495 C1641.02956,3234.2765 1641.41956,3234.7575 1642.29056,3234.7575 C1642.92756,3234.7575 1643.35656,3234.4715 1643.56456,3233.9125 Z M1641.00356,3231.7805 L1643.52556,3231.7805 C1643.35656,3231.0785 1642.94056,3230.7275 1642.26456,3230.7275 C1641.60156,3230.7275 1641.18556,3231.0785 1641.00356,3231.7805 Z M1650.36056,3233.8215 L1651.92056,3233.5355 C1652.06356,3234.3805 1652.54456,3234.8095 1653.38956,3234.8095 C1654.20856,3234.8095 1654.58556,3234.4845 1654.58556,3234.1075 C1654.58556,3233.8995 1654.42956,3233.7565 1654.23456,3233.6525 C1654.13056,3233.5875 1653.87056,3233.4965 1653.76656,3233.4835 C1653.66256,3233.4445 1653.35056,3233.3795 1653.29856,3233.3665 C1652.71356,3233.2235 1652.41456,3233.1325 1651.89456,3232.9115 C1651.16656,3232.5735 1650.77656,3232.0925 1650.72456,3231.1955 C1650.72456,3230.5455 1651.21856,3229.1025 1653.33756,3229.1025 C1654.84556,3229.1025 1655.75556,3230.0125 1656.06756,3231.1565 L1654.57256,3231.4815 C1654.35156,3230.9225 1653.93556,3230.6495 1653.33756,3230.6495 C1652.64856,3230.6495 1652.40156,3230.9485 1652.40156,3231.2085 C1652.40156,3231.5595 1652.75256,3231.6895 1653.70156,3231.9365 L1654.20856,3232.0665 C1654.28656,3232.0795 1654.44256,3232.1315 1654.68956,3232.2095 C1654.93656,3232.2875 1655.10556,3232.3525 1655.19656,3232.4175 C1655.39156,3232.5215 1655.82056,3232.7815 1655.96356,3233.0415 C1656.10656,3233.2885 1656.26256,3233.6785 1656.26256,3234.1075 C1656.26256,3234.6925 1656.02856,3235.2255 1655.54756,3235.6935 C1655.06656,3236.1485 1654.35156,3236.3825 1653.38956,3236.3825 C1652.36256,3236.3825 1651.55656,3236.0185 1651.10156,3235.4855 C1650.64656,3234.9525 1650.42556,3234.3935 1650.36056,3233.8215 Z M1661.37156,3236.1875 L1659.09656,3236.1875 L1659.09656,3234.0165 L1661.37156,3234.0165 L1661.37156,3236.1875 Z" id="With-the-eyes-of-the-Copy"></path>
        </g>
    </g>
</svg>