<?xml version="1.0" encoding="UTF-8"?>
<svg width="637px" height="199px" viewBox="0 0 637 199" version="1.1" xmlns="http://www.w3.org/2000/svg" xmlns:xlink="http://www.w3.org/1999/xlink">
    <!-- Generator: Sketch 50.2 (55047) - http://www.bohemiancoding.com/sketch -->
    <title>icon-click-crop</title>
    <desc>Created with Sketch.</desc>
    <defs></defs>
    <g id="Page-1" stroke="none" stroke-width="1" fill="none" fill-rule="evenodd">
        <g id="icon-click" transform="translate(0.046875, -0.421875)" fill-rule="nonzero">
            <path d="M142,119 L142,163 C142,181.145312 107.415337,199 71,199 C34.730182,199 0,180.985973 0,163 L0,119 C0,100.854688 34.584663,83 71,83 C107.269818,83 142,101.014027 142,119 Z M134,119 C134,114.075889 127.519658,107.115226 116.53442,101.417347 C104.004162,94.918089 87.735878,91 71,91 C54.228004,91 37.95299,94.882403 25.458786,101.332664 C14.454523,107.013728 8,113.967647 8,119 L8,163 C8,167.924111 14.480342,174.884774 25.46558,180.582653 C37.995838,187.081911 54.264122,191 71,191 C87.771996,191 104.04701,187.117597 116.541214,180.667336 C127.545477,174.986272 134,168.032353 134,163 L134,119 Z" id="Oval-Copy-2" fill="#FFFFFF"></path>
            <path d="M0,117 L8,117 C8,121.924111 14.480342,128.884774 25.46558,134.582653 C37.995838,141.081911 54.264122,145 71,145 C87.771996,145 104.04701,141.117597 116.541214,134.667336 C127.545477,128.986272 134,122.032353 134,117 L142,117 C142,135.145312 107.415337,153 71,153 C34.730182,153 0,134.985973 0,117 Z" id="Oval-Copy-3" fill="#FFFFFF"></path>
            <path d="M191.88,88 L186.32,88 L196.04,60 L200.8,60 L210.48,88 L204.72,88 L203.08,83.12 L193.52,83.12 L191.88,88 Z M198.32,68.32 L195.32,77.92 L201.36,77.92 L198.32,68.32 Z M216.04,79.64 L216.04,66.8 L221.24,66.8 L221.24,79.8 C221.24,82.08 222.64,83.6 225.16,83.6 C227.68,83.6 229.04,82.24 229.04,80.16 L229.04,66.8 L234.24,66.8 L234.24,88 L229.2,88 L229.2,86.96 C227.84,88.04 226.28,88.6 224.56,88.6 C222.12,88.6 220.08,87.76 218.44,86.08 C216.84,84.36 216.04,82.24 216.04,79.64 Z M242.92,80.72 L247.72,79.84 C248.16,82.44 249.64,83.76 252.24,83.76 C254.76,83.76 255.92,82.76 255.92,81.6 C255.92,80.96 255.44,80.52 254.84,80.2 C254.52,80 253.72,79.72 253.4,79.68 C253.08,79.56 252.12,79.36 251.96,79.32 C250.16,78.88 249.24,78.6 247.64,77.92 C245.4,76.88 244.2,75.4 244.04,72.64 C244.04,70.64 245.56,66.2 252.08,66.2 C256.72,66.2 259.52,69 260.48,72.52 L255.88,73.52 C255.2,71.8 253.92,70.96 252.08,70.96 C249.96,70.96 249.2,71.88 249.2,72.68 C249.2,73.76 250.28,74.16 253.2,74.92 L254.76,75.32 C255,75.36 255.48,75.52 256.24,75.76 C257,76 257.52,76.2 257.8,76.4 C258.4,76.72 259.72,77.52 260.16,78.32 C260.6,79.08 261.08,80.28 261.08,81.6 C261.08,83.4 260.36,85.04 258.88,86.48 C257.4,87.88 255.2,88.6 252.24,88.6 C249.08,88.6 246.6,87.48 245.2,85.84 C243.8,84.2 243.12,82.48 242.92,80.72 Z M275.12,88 L270.24,88 L265.56,66.8 L270.64,66.8 L273.44,79.76 L276.68,66.8 L281,66.8 L284.24,79.72 L287.04,66.8 L292.04,66.8 L287.36,88 L282.48,88 L278.8,74.76 L275.12,88 Z M300.88,74 L296.04,73.2 C296.24,71 297.2,69.32 298.84,68.08 C300.52,66.84 302.4,66.2 304.48,66.2 C306.76,66.2 308.68,66.84 310.32,68.12 C311.96,69.4 312.8,71.08 312.8,73.12 L312.8,82.72 C312.8,83.32 313.2,83.6 314,83.6 L314.76,83.48 L315.6,87.68 C314.56,88.28 313.48,88.6 312.4,88.6 C311.16,88.6 309.84,88 309.32,87.52 L308.92,87.16 C307.6,88.12 305.88,88.6 303.84,88.6 C298.88,88.6 295.64,85.96 295.64,81.76 C295.64,77.48 298.48,75.88 304.2,75.08 C306.48,74.76 307.6,74.36 307.6,73.24 C307.6,71.88 306.64,71.2 304.72,71.2 C302.48,71.2 301.2,71.8 300.88,74 Z M307.6,81.4 L307.6,78.24 L307.52,78.32 C307.4,78.44 306.8,78.8 305.2,79.04 C303.76,79.24 303.12,79.36 302.16,79.72 C301.24,80.08 300.84,80.68 300.84,81.6 C300.84,82.92 301.96,83.6 304.24,83.6 C304.6,83.6 305,83.56 305.44,83.48 C306.36,83.32 307.6,82.56 307.6,81.4 Z M329.16,88 L323.96,88 L323.96,60 L329.16,60 L329.16,67.36 C330.48,66.6 331.88,66.2 333.44,66.2 C335.88,66.2 337.88,67.04 339.44,68.76 C341,70.44 341.8,72.56 341.8,75.16 L341.8,88 L336.6,88 L336.6,75.04 C336.6,72.68 335.36,71.2 332.84,71.2 C330.4,71.2 329.16,72.56 329.16,74.68 L329.16,88 Z M369.04,88 L349.4,88 L349.4,83 L356.72,83 L356.72,65 L350.96,65 L350.96,60 L361.92,60 L361.92,83 L369.04,83 L369.04,88 Z" id="Auswahl" fill="#FFFFFF"></path>
            <path d="M202.44,134 L207.24,135.64 C206,139.12 203.04,141.6 198.6,141.6 C195.72,141.6 193.4,140.64 191.68,138.68 C189.96,136.72 189.08,133.96 189.08,130.4 C189.08,126.84 189.92,124.12 191.6,122.16 C193.32,120.2 195.6,119.2 198.44,119.2 C201.28,119.2 203.56,120.2 205.28,122.16 C207,124.12 207.88,126.84 207.88,130.4 L207.88,131.96 L194.36,131.96 C194.64,135.12 195.84,136.6 198.52,136.6 C200.48,136.6 201.8,135.72 202.44,134 Z M194.56,127.44 L202.32,127.44 C201.8,125.28 200.52,124.2 198.44,124.2 C196.4,124.2 195.12,125.28 194.56,127.44 Z M234.84,141 L215.92,141 L215.92,136 L223.32,136 L223.32,124.8 L216.8,124.8 L216.8,119.8 L228.52,119.8 L228.52,136 L234.84,136 L234.84,141 Z M228.52,117.92 L223.32,117.92 L223.32,113 L228.52,113 L228.52,117.92 Z M248.44,141 L243.24,141 L243.24,119.8 L248.28,119.8 L248.28,120.84 C249.52,119.76 251,119.2 252.72,119.2 C255.16,119.2 257.16,120.04 258.72,121.76 C260.28,123.44 261.04,125.56 261.04,128.16 L261.04,141 L255.84,141 L255.84,128 C255.84,125.72 254.64,124.2 252.12,124.2 C249.68,124.2 248.44,125.52 248.44,127.64 L248.44,141 Z M282.84,134 L287.64,135.64 C286.4,139.12 283.44,141.6 279,141.6 C276.12,141.6 273.8,140.64 272.08,138.68 C270.36,136.72 269.48,133.96 269.48,130.4 C269.48,126.84 270.32,124.12 272,122.16 C273.72,120.2 276,119.2 278.84,119.2 C281.68,119.2 283.96,120.2 285.68,122.16 C287.4,124.12 288.28,126.84 288.28,130.4 L288.28,131.96 L274.76,131.96 C275.04,135.12 276.24,136.6 278.92,136.6 C280.88,136.6 282.2,135.72 282.84,134 Z M274.96,127.44 L282.72,127.44 C282.2,125.28 280.92,124.2 278.84,124.2 C276.8,124.2 275.52,125.28 274.96,127.44 Z M296.52,133.72 L301.32,132.84 C301.76,135.44 303.24,136.76 305.84,136.76 C308.36,136.76 309.52,135.76 309.52,134.6 C309.52,133.96 309.04,133.52 308.44,133.2 C308.12,133 307.32,132.72 307,132.68 C306.68,132.56 305.72,132.36 305.56,132.32 C303.76,131.88 302.84,131.6 301.24,130.92 C299,129.88 297.8,128.4 297.64,125.64 C297.64,123.64 299.16,119.2 305.68,119.2 C310.32,119.2 313.12,122 314.08,125.52 L309.48,126.52 C308.8,124.8 307.52,123.96 305.68,123.96 C303.56,123.96 302.8,124.88 302.8,125.68 C302.8,126.76 303.88,127.16 306.8,127.92 L308.36,128.32 C308.6,128.36 309.08,128.52 309.84,128.76 C310.6,129 311.12,129.2 311.4,129.4 C312,129.72 313.32,130.52 313.76,131.32 C314.2,132.08 314.68,133.28 314.68,134.6 C314.68,136.4 313.96,138.04 312.48,139.48 C311,140.88 308.8,141.6 305.84,141.6 C302.68,141.6 300.2,140.48 298.8,138.84 C297.4,137.2 296.72,135.48 296.52,133.72 Z M354.72,141 L349.32,141 L349.32,113 L354.48,113 L359.28,127.36 L364.08,113 L369.24,113 L369.24,141 L363.84,141 L363.84,123.64 L361,131.96 L357.56,131.96 L354.72,123.64 L354.72,141 Z M390.04,134 L394.84,135.64 C393.6,139.12 390.64,141.6 386.2,141.6 C383.32,141.6 381,140.64 379.28,138.68 C377.56,136.72 376.68,133.96 376.68,130.4 C376.68,126.84 377.52,124.12 379.2,122.16 C380.92,120.2 383.2,119.2 386.04,119.2 C388.88,119.2 391.16,120.2 392.88,122.16 C394.6,124.12 395.48,126.84 395.48,130.4 L395.48,131.96 L381.96,131.96 C382.24,135.12 383.44,136.6 386.12,136.6 C388.08,136.6 389.4,135.72 390.04,134 Z M382.16,127.44 L389.92,127.44 C389.4,125.28 388.12,124.2 386.04,124.2 C384,124.2 382.72,125.28 382.16,127.44 Z M409.24,141 L404.04,141 L404.04,119.8 L409.08,119.8 L409.08,120.84 C410.32,119.76 411.8,119.2 413.52,119.2 C415.96,119.2 417.96,120.04 419.52,121.76 C421.08,123.44 421.84,125.56 421.84,128.16 L421.84,141 L416.64,141 L416.64,128 C416.64,125.72 415.44,124.2 412.92,124.2 C410.48,124.2 409.24,125.52 409.24,127.64 L409.24,141 Z M430.44,132.64 L430.44,119.8 L435.64,119.8 L435.64,132.8 C435.64,135.08 437.04,136.6 439.56,136.6 C442.08,136.6 443.44,135.24 443.44,133.16 L443.44,119.8 L448.64,119.8 L448.64,141 L443.6,141 L443.6,139.96 C442.24,141.04 440.68,141.6 438.96,141.6 C436.52,141.6 434.48,140.76 432.84,139.08 C431.24,137.36 430.44,135.24 430.44,132.64 Z M445.64,117.2 L441.28,117.2 L441.28,113 L445.64,113 L445.64,117.2 Z M437.92,117.2 L433.52,117.2 L433.52,113 L437.92,113 L437.92,117.2 Z M462.84,128.2 L462.84,132.56 C462.84,134.96 464.64,136.6 467.4,136.6 C470.4,136.6 471.8,134.72 471.8,130.4 C471.8,126.08 470.4,124.2 467.4,124.2 C464.64,124.2 462.84,125.84 462.84,128.2 Z M462.84,150 L457.64,150 L457.64,119.8 L462.68,119.8 L462.68,120.84 C462.8,120.72 463,120.56 463.28,120.4 C463.56,120.2 464.12,119.96 464.96,119.68 C465.84,119.36 466.72,119.2 467.6,119.2 C470.44,119.2 472.72,120.2 474.44,122.16 C476.16,124.12 477,126.84 477,130.4 C477,133.96 476.16,136.72 474.44,138.68 C472.72,140.64 470.44,141.6 467.6,141.6 C465.72,141.6 464,141.08 463.36,140.6 L462.84,140.28 L462.84,150 Z M484.04,132.64 L484.04,119.8 L489.24,119.8 L489.24,132.8 C489.24,135.08 490.64,136.6 493.16,136.6 C495.68,136.6 497.04,135.24 497.04,133.16 L497.04,119.8 L502.24,119.8 L502.24,141 L497.2,141 L497.2,139.96 C495.84,141.04 494.28,141.6 492.56,141.6 C490.12,141.6 488.08,140.76 486.44,139.08 C484.84,137.36 484.04,135.24 484.04,132.64 Z M516.44,141 L511.24,141 L511.24,119.8 L516.28,119.8 L516.28,120.84 C517.52,119.76 519,119.2 520.72,119.2 C523.16,119.2 525.16,120.04 526.72,121.76 C528.28,123.44 529.04,125.56 529.04,128.16 L529.04,141 L523.84,141 L523.84,128 C523.84,125.72 522.64,124.2 520.12,124.2 C517.68,124.2 516.44,125.52 516.44,127.64 L516.44,141 Z M544.28,141 L539.08,141 L539.08,113 L544.28,113 L544.28,127.04 L550.32,119.8 L556.56,119.8 L550.04,127.6 L557.68,141 L552.08,141 L546.68,131.56 L544.28,134.48 L544.28,141 Z M568.56,135.32 L568.56,124.8 L564.64,124.8 L564.64,119.8 L568.56,119.8 L568.56,113 L573.76,113 L573.76,119.8 L582.48,119.8 L582.48,124.8 L573.76,124.8 L573.76,134.92 C573.72,135.4 573.92,136.48 575.6,136.6 C577.2,136.6 577.92,135.92 578.28,133.16 L583.16,133.96 C582.24,139.68 579.6,141.6 575.6,141.6 C573.56,141.6 571.88,141.04 570.56,139.88 C569.24,138.72 568.56,137.2 568.56,135.32 Z M604.44,134 L609.24,135.64 C608,139.12 605.04,141.6 600.6,141.6 C597.72,141.6 595.4,140.64 593.68,138.68 C591.96,136.72 591.08,133.96 591.08,130.4 C591.08,126.84 591.92,124.12 593.6,122.16 C595.32,120.2 597.6,119.2 600.44,119.2 C603.28,119.2 605.56,120.2 607.28,122.16 C609,124.12 609.88,126.84 609.88,130.4 L609.88,131.96 L596.36,131.96 C596.64,135.12 597.84,136.6 600.52,136.6 C602.48,136.6 603.8,135.72 604.44,134 Z M596.56,127.44 L604.32,127.44 C603.8,125.28 602.52,124.2 600.44,124.2 C598.4,124.2 597.12,125.28 596.56,127.44 Z M618.12,133.72 L622.92,132.84 C623.36,135.44 624.84,136.76 627.44,136.76 C629.96,136.76 631.12,135.76 631.12,134.6 C631.12,133.96 630.64,133.52 630.04,133.2 C629.72,133 628.92,132.72 628.6,132.68 C628.28,132.56 627.32,132.36 627.16,132.32 C625.36,131.88 624.44,131.6 622.84,130.92 C620.6,129.88 619.4,128.4 619.24,125.64 C619.24,123.64 620.76,119.2 627.28,119.2 C631.92,119.2 634.72,122 635.68,125.52 L631.08,126.52 C630.4,124.8 629.12,123.96 627.28,123.96 C625.16,123.96 624.4,124.88 624.4,125.68 C624.4,126.76 625.48,127.16 628.4,127.92 L629.96,128.32 C630.2,128.36 630.68,128.52 631.44,128.76 C632.2,129 632.72,129.2 633,129.4 C633.6,129.72 634.92,130.52 635.36,131.32 C635.8,132.08 636.28,133.28 636.28,134.6 C636.28,136.4 635.56,138.04 634.08,139.48 C632.6,140.88 630.4,141.6 627.44,141.6 C624.28,141.6 621.8,140.48 620.4,138.84 C619,137.2 618.32,135.48 618.12,133.72 Z" id="eines-Menüpunktes" fill="#96CBDB"></path>
            <polygon id="Line-6" fill="#96CBDB" points="66.5 0.975563 74.5 0.975563 74.5 55.02419 66.5 55.02419"></polygon>
            <polygon id="Rectangle-15" fill="#96CBDB" transform="translate(68.849242, 40.849242) rotate(-45.000000) translate(-68.849242, -40.849242) " points="81.349242 45.349242 81.349242 53.349242 56.349242 53.349242 56.349242 28.349242 64.349242 28.349242 64.349242 45.349242"></polygon>
        </g>
    </g>
</svg>