<?xml version="1.0" encoding="UTF-8"?>
<svg width="1280px" height="1024px" viewBox="0 0 1280 1024" version="1.1" xmlns="http://www.w3.org/2000/svg" xmlns:xlink="http://www.w3.org/1999/xlink">
    <!-- Generator: Sketch 50.2 (55047) - http://www.bohemiancoding.com/sketch -->
    <title>icon-scroll</title>
    <desc>Created with Sketch.</desc>
    <defs></defs>
    <g id="icon-scroll" stroke="none" stroke-width="1" fill="none" fill-rule="evenodd">
        <path d="M501,517 L501,561 C501,579.145312 466.415337,597 430,597 C393.730182,597 359,578.985973 359,561 L359,517 C359,498.854688 393.584663,481 430,481 C466.269818,481 501,499.014027 501,517 Z M493,517 C493,512.075889 486.519658,505.115226 475.53442,499.417347 C463.004162,492.918089 446.735878,489 430,489 C413.228004,489 396.95299,492.882403 384.458786,499.332664 C373.454523,505.013728 367,511.967647 367,517 L367,561 C367,565.924111 373.480342,572.884774 384.46558,578.582653 C396.995838,585.081911 413.264122,589 430,589 C446.771996,589 463.04701,585.117597 475.541214,578.667336 C486.545477,572.986272 493,566.032353 493,561 L493,517 Z" id="Oval-Copy-4" fill="#FFFFFF" fill-rule="nonzero"></path>
        <path d="M359,515 L367,515 C367,519.924111 373.480342,526.884774 384.46558,532.582653 C396.995838,539.081911 413.264122,543 430,543 C446.771996,543 463.04701,539.117597 475.541214,532.667336 C486.545477,526.986272 493,520.032353 493,515 L501,515 C501,533.145312 466.415337,551 430,551 C393.730182,551 359,532.985973 359,515 Z" id="Oval-Copy-5" fill="#FFFFFF" fill-rule="nonzero"></path>
        <path d="M560.96,530.36 L560.96,526.4 C560.96,523.88 559.28,522.2 556.4,522.2 C553.4,522.2 552,524.08 552,528.4 C552,532.72 553.4,534.6 556.4,534.6 C559.24,534.6 560.96,532.88 560.96,530.36 Z M566.16,539 L561.12,539 L561.12,537.96 L560.52,538.44 C560.24,538.6 559.68,538.84 558.8,539.12 C557.96,539.44 557.08,539.6 556.2,539.6 C553.36,539.6 551.08,538.64 549.36,536.68 C547.64,534.72 546.8,531.96 546.8,528.4 C546.8,524.84 547.64,522.12 549.36,520.16 C551.08,518.2 553.36,517.2 556.2,517.2 C558.08,517.2 559.84,517.76 560.48,518.2 L560.96,518.56 L560.96,511 L566.16,511 L566.16,539 Z M575.04,530.64 L575.04,517.8 L580.24,517.8 L580.24,530.8 C580.24,533.08 581.64,534.6 584.16,534.6 C586.68,534.6 588.04,533.24 588.04,531.16 L588.04,517.8 L593.24,517.8 L593.24,539 L588.2,539 L588.2,537.96 C586.84,539.04 585.28,539.6 583.56,539.6 C581.12,539.6 579.08,538.76 577.44,537.08 C575.84,535.36 575.04,533.24 575.04,530.64 Z M619.36,539 L601.36,539 L601.36,534 L606.6,534 L606.6,522.8 L601.84,522.8 L601.84,517.8 L611.64,517.8 L611.64,518.84 C611.68,518.8 612.96,517.2 615.08,517.2 C616.72,517.2 618.16,517.88 619.4,519.24 C620.68,520.6 621.36,522.6 621.44,525.28 L616.4,526.08 C616.16,523.48 615.24,522.2 613.68,522.2 C612.28,522.2 611.8,523 611.8,523.64 L611.8,534 L619.36,534 L619.36,539 Z M641.96,530.96 L646.92,531.76 C646.64,534.08 645.72,535.96 644.08,537.44 C642.44,538.88 640.44,539.6 638,539.6 C632.36,539.6 628.68,535.48 628.68,528.4 C628.68,521.32 632.36,517.2 638,517.2 C640.44,517.2 642.44,517.92 644.08,519.4 C645.72,520.84 646.64,522.72 646.92,525.04 L641.96,525.84 C641.6,523.4 640.32,522.2 638.04,522.2 C635.12,522.2 633.88,524.04 633.88,528.4 C633.88,532.76 635.12,534.6 638,534.6 C640.28,534.6 641.6,533.4 641.96,530.96 Z M661.36,539 L656.16,539 L656.16,511 L661.36,511 L661.36,518.36 C662.68,517.6 664.08,517.2 665.64,517.2 C668.08,517.2 670.08,518.04 671.64,519.76 C673.2,521.44 674,523.56 674,526.16 L674,539 L668.8,539 L668.8,526.04 C668.8,523.68 667.56,522.2 665.04,522.2 C662.6,522.2 661.36,523.56 661.36,525.68 L661.36,539 Z M721.76,530.36 L721.76,526.4 C721.76,523.88 720.08,522.2 717.2,522.2 C714.2,522.2 712.8,524.08 712.8,528.4 C712.8,532.72 714.2,534.6 717.2,534.6 C720.04,534.6 721.76,532.88 721.76,530.36 Z M726.96,539 L721.92,539 L721.92,537.96 L721.32,538.44 C721.04,538.6 720.48,538.84 719.6,539.12 C718.76,539.44 717.88,539.6 717,539.6 C714.16,539.6 711.88,538.64 710.16,536.68 C708.44,534.72 707.6,531.96 707.6,528.4 C707.6,524.84 708.44,522.12 710.16,520.16 C711.88,518.2 714.16,517.2 717,517.2 C718.88,517.2 720.64,517.76 721.28,518.2 L721.76,518.56 L721.76,511 L726.96,511 L726.96,539 Z M740.28,525 L735.44,524.2 C735.64,522 736.6,520.32 738.24,519.08 C739.92,517.84 741.8,517.2 743.88,517.2 C746.16,517.2 748.08,517.84 749.72,519.12 C751.36,520.4 752.2,522.08 752.2,524.12 L752.2,533.72 C752.2,534.32 752.6,534.6 753.4,534.6 L754.16,534.48 L755,538.68 C753.96,539.28 752.88,539.6 751.8,539.6 C750.56,539.6 749.24,539 748.72,538.52 L748.32,538.16 C747,539.12 745.28,539.6 743.24,539.6 C738.28,539.6 735.04,536.96 735.04,532.76 C735.04,528.48 737.88,526.88 743.6,526.08 C745.88,525.76 747,525.36 747,524.24 C747,522.88 746.04,522.2 744.12,522.2 C741.88,522.2 740.6,522.8 740.28,525 Z M747,532.4 L747,529.24 L746.92,529.32 C746.8,529.44 746.2,529.8 744.6,530.04 C743.16,530.24 742.52,530.36 741.56,530.72 C740.64,531.08 740.24,531.68 740.24,532.6 C740.24,533.92 741.36,534.6 743.64,534.6 C744,534.6 744.4,534.56 744.84,534.48 C745.76,534.32 747,533.56 747,532.4 Z M762.72,531.72 L767.52,530.84 C767.96,533.44 769.44,534.76 772.04,534.76 C774.56,534.76 775.72,533.76 775.72,532.6 C775.72,531.96 775.24,531.52 774.64,531.2 C774.32,531 773.52,530.72 773.2,530.68 C772.88,530.56 771.92,530.36 771.76,530.32 C769.96,529.88 769.04,529.6 767.44,528.92 C765.2,527.88 764,526.4 763.84,523.64 C763.84,521.64 765.36,517.2 771.88,517.2 C776.52,517.2 779.32,520 780.28,523.52 L775.68,524.52 C775,522.8 773.72,521.96 771.88,521.96 C769.76,521.96 769,522.88 769,523.68 C769,524.76 770.08,525.16 773,525.92 L774.56,526.32 C774.8,526.36 775.28,526.52 776.04,526.76 C776.8,527 777.32,527.2 777.6,527.4 C778.2,527.72 779.52,528.52 779.96,529.32 C780.4,530.08 780.88,531.28 780.88,532.6 C780.88,534.4 780.16,536.04 778.68,537.48 C777.2,538.88 775,539.6 772.04,539.6 C768.88,539.6 766.4,538.48 765,536.84 C763.6,535.2 762.92,533.48 762.72,531.72 Z M820.92,539 L815.52,539 L815.52,511 L820.68,511 L825.48,525.36 L830.28,511 L835.44,511 L835.44,539 L830.04,539 L830.04,521.64 L827.2,529.96 L823.76,529.96 L820.92,521.64 L820.92,539 Z M856.24,532 L861.04,533.64 C859.8,537.12 856.84,539.6 852.4,539.6 C849.52,539.6 847.2,538.64 845.48,536.68 C843.76,534.72 842.88,531.96 842.88,528.4 C842.88,524.84 843.72,522.12 845.4,520.16 C847.12,518.2 849.4,517.2 852.24,517.2 C855.08,517.2 857.36,518.2 859.08,520.16 C860.8,522.12 861.68,524.84 861.68,528.4 L861.68,529.96 L848.16,529.96 C848.44,533.12 849.64,534.6 852.32,534.6 C854.28,534.6 855.6,533.72 856.24,532 Z M848.36,525.44 L856.12,525.44 C855.6,523.28 854.32,522.2 852.24,522.2 C850.2,522.2 848.92,523.28 848.36,525.44 Z M875.44,539 L870.24,539 L870.24,517.8 L875.28,517.8 L875.28,518.84 C876.52,517.76 878,517.2 879.72,517.2 C882.16,517.2 884.16,518.04 885.72,519.76 C887.28,521.44 888.04,523.56 888.04,526.16 L888.04,539 L882.84,539 L882.84,526 C882.84,523.72 881.64,522.2 879.12,522.2 C876.68,522.2 875.44,523.52 875.44,525.64 L875.44,539 Z M896.64,530.64 L896.64,517.8 L901.84,517.8 L901.84,530.8 C901.84,533.08 903.24,534.6 905.76,534.6 C908.28,534.6 909.64,533.24 909.64,531.16 L909.64,517.8 L914.84,517.8 L914.84,539 L909.8,539 L909.8,537.96 C908.44,539.04 906.88,539.6 905.16,539.6 C902.72,539.6 900.68,538.76 899.04,537.08 C897.44,535.36 896.64,533.24 896.64,530.64 Z M911.84,515.2 L907.48,515.2 L907.48,511 L911.84,511 L911.84,515.2 Z M904.12,515.2 L899.72,515.2 L899.72,511 L904.12,511 L904.12,515.2 Z" id="durch-das-Menü" fill="#96CBDB"></path>
        <path d="M553.16,486 L547.76,486 L547.76,458 L552.76,458 L562.68,475.96 L562.68,458 L568.12,458 L568.12,486 L563.2,486 L553.16,468.04 L553.16,486 Z M579.48,472 L574.64,471.2 C574.84,469 575.8,467.32 577.44,466.08 C579.12,464.84 581,464.2 583.08,464.2 C585.36,464.2 587.28,464.84 588.92,466.12 C590.56,467.4 591.4,469.08 591.4,471.12 L591.4,480.72 C591.4,481.32 591.8,481.6 592.6,481.6 L593.36,481.48 L594.2,485.68 C593.16,486.28 592.08,486.6 591,486.6 C589.76,486.6 588.44,486 587.92,485.52 L587.52,485.16 C586.2,486.12 584.48,486.6 582.44,486.6 C577.48,486.6 574.24,483.96 574.24,479.76 C574.24,475.48 577.08,473.88 582.8,473.08 C585.08,472.76 586.2,472.36 586.2,471.24 C586.2,469.88 585.24,469.2 583.32,469.2 C581.08,469.2 579.8,469.8 579.48,472 Z M586.2,479.4 L586.2,476.24 L586.12,476.32 C586,476.44 585.4,476.8 583.8,477.04 C582.36,477.24 581.72,477.36 580.76,477.72 C579.84,478.08 579.44,478.68 579.44,479.6 C579.44,480.92 580.56,481.6 582.84,481.6 C583.2,481.6 583.6,481.56 584.04,481.48 C584.96,481.32 586.2,480.56 586.2,479.4 Z M613.2,486 L608.8,486 L600.32,464.8 L605.72,464.8 L611.04,478 L616.36,464.8 L621.68,464.8 L613.2,486 Z M647.44,486 L628.52,486 L628.52,481 L635.92,481 L635.92,469.8 L629.4,469.8 L629.4,464.8 L641.12,464.8 L641.12,481 L647.44,481 L647.44,486 Z M641.12,462.92 L635.92,462.92 L635.92,458 L641.12,458 L641.12,462.92 Z M669.04,477.36 L669.04,473.4 C669.04,470.88 667.36,469.2 664.48,469.2 C661.48,469.2 660.08,471.08 660.08,475.4 C660.08,479.72 661.48,481.6 664.48,481.6 C667.32,481.6 669.04,479.88 669.04,477.36 Z M656.4,488.48 L661.24,487.64 C661.6,489.76 662.96,490.8 665.28,490.8 C667.8,490.8 669.04,489.44 669.04,486.68 L669.04,485.28 C667.88,486.16 666.28,486.6 664.28,486.6 C661.44,486.6 659.16,485.64 657.44,483.68 C655.72,481.72 654.88,478.96 654.88,475.4 C654.88,471.84 655.72,469.12 657.44,467.16 C659.16,465.2 661.44,464.2 664.28,464.2 C666.04,464.2 667.88,464.92 668.64,465.44 L669.2,465.84 L669.2,464.8 L674.24,464.8 L674.24,486.6 C674.24,489.2 673.4,491.36 671.76,493.04 C670.12,494.76 667.96,495.6 665.36,495.6 C660.36,495.6 656.88,492.8 656.4,488.48 Z M686.68,472 L681.84,471.2 C682.04,469 683,467.32 684.64,466.08 C686.32,464.84 688.2,464.2 690.28,464.2 C692.56,464.2 694.48,464.84 696.12,466.12 C697.76,467.4 698.6,469.08 698.6,471.12 L698.6,480.72 C698.6,481.32 699,481.6 699.8,481.6 L700.56,481.48 L701.4,485.68 C700.36,486.28 699.28,486.6 698.2,486.6 C696.96,486.6 695.64,486 695.12,485.52 L694.72,485.16 C693.4,486.12 691.68,486.6 689.64,486.6 C684.68,486.6 681.44,483.96 681.44,479.76 C681.44,475.48 684.28,473.88 690,473.08 C692.28,472.76 693.4,472.36 693.4,471.24 C693.4,469.88 692.44,469.2 690.52,469.2 C688.28,469.2 687,469.8 686.68,472 Z M693.4,479.4 L693.4,476.24 L693.32,476.32 C693.2,476.44 692.6,476.8 691,477.04 C689.56,477.24 688.92,477.36 687.96,477.72 C687.04,478.08 686.64,478.68 686.64,479.6 C686.64,480.92 687.76,481.6 690.04,481.6 C690.4,481.6 690.8,481.56 691.24,481.48 C692.16,481.32 693.4,480.56 693.4,479.4 Z M713.16,480.32 L713.16,469.8 L709.24,469.8 L709.24,464.8 L713.16,464.8 L713.16,458 L718.36,458 L718.36,464.8 L727.08,464.8 L727.08,469.8 L718.36,469.8 L718.36,479.92 C718.32,480.4 718.52,481.48 720.2,481.6 C721.8,481.6 722.52,480.92 722.88,478.16 L727.76,478.96 C726.84,484.68 724.2,486.6 720.2,486.6 C718.16,486.6 716.48,486.04 715.16,484.88 C713.84,483.72 713.16,482.2 713.16,480.32 Z M754.64,486 L735.72,486 L735.72,481 L743.12,481 L743.12,469.8 L736.6,469.8 L736.6,464.8 L748.32,464.8 L748.32,481 L754.64,481 L754.64,486 Z M748.32,462.92 L743.12,462.92 L743.12,458 L748.32,458 L748.32,462.92 Z M768.64,480.16 C769.32,481.12 770.36,481.6 771.8,481.6 C773.24,481.6 774.28,481.12 774.92,480.16 C775.6,479.16 775.92,477.6 775.92,475.4 C775.92,473.2 775.6,471.64 774.92,470.68 C774.28,469.68 773.24,469.2 771.8,469.2 C770.36,469.2 769.32,469.68 768.64,470.68 C768,471.64 767.68,473.2 767.68,475.4 C767.68,477.6 768,479.16 768.64,480.16 Z M778.56,483.68 C776.88,485.64 774.64,486.6 771.8,486.6 C768.96,486.6 766.72,485.64 765,483.68 C763.32,481.72 762.48,478.96 762.48,475.4 C762.48,471.84 763.32,469.12 765,467.16 C766.72,465.2 768.96,464.2 771.8,464.2 C774.64,464.2 776.88,465.2 778.56,467.16 C780.28,469.12 781.12,471.84 781.12,475.4 C781.12,478.96 780.28,481.72 778.56,483.68 Z M795.04,486 L789.84,486 L789.84,464.8 L794.88,464.8 L794.88,465.84 C796.12,464.76 797.6,464.2 799.32,464.2 C801.76,464.2 803.76,465.04 805.32,466.76 C806.88,468.44 807.64,470.56 807.64,473.16 L807.64,486 L802.44,486 L802.44,473 C802.44,470.72 801.24,469.2 798.72,469.2 C796.28,469.2 795.04,470.52 795.04,472.64 L795.04,486 Z" id="Navigation" fill="#FFFFFF"></path>
        <polygon id="Rectangle-15-Copy-2" fill="#96CBDB" fill-rule="nonzero" transform="translate(461.320994, 451.208536) rotate(-158.000000) translate(-461.320994, -451.208536) " points="474.206706 457.956663 473.359273 465.911653 448.435282 463.256539 451.781167 436.50542 459.719317 437.498281 457.384631 456.164634"></polygon>
        <path d="M392.774734,403.180802 L395.152741,410.819198 C381.085281,415.198721 373,421.877337 373,428.069815 C373,439.266501 397.78093,450 428.866226,450 C437.112443,450 445.106724,449.256358 452.447057,447.839881 C459.63773,446.452284 466.060269,444.444291 471.291672,441.973371 L474.708328,449.207074 C468.837455,451.980032 461.780438,454.186393 453.962866,455.694963 C446.116112,457.209165 437.614504,458 428.866226,458 C393.825115,458 365,445.514821 365,428.069815 C365,417.35223 375.733496,408.48613 392.774734,403.180802 Z" id="Oval-4" fill="#96CBDB" fill-rule="nonzero"></path>
    </g>
</svg>