<?xml version="1.0" encoding="UTF-8"?>
<svg width="557px" height="194px" viewBox="0 0 557 194" version="1.1" xmlns="http://www.w3.org/2000/svg" xmlns:xlink="http://www.w3.org/1999/xlink">
    <!-- Generator: Sketch 50.2 (55047) - http://www.bohemiancoding.com/sketch -->
    <title>icon-scroll-crop</title>
    <desc>Created with Sketch.</desc>
    <defs></defs>
    <g id="Page-1" stroke="none" stroke-width="1" fill="none" fill-rule="evenodd">
        <g id="icon-scroll" transform="translate(0.792969, -0.082031)" fill-rule="nonzero">
            <path d="M142,114 L142,158 C142,176.145312 107.415337,194 71,194 C34.730182,194 0,175.985973 0,158 L0,114 C0,95.854688 34.584663,78 71,78 C107.269818,78 142,96.014027 142,114 Z M134,114 C134,109.075889 127.519658,102.115226 116.53442,96.417347 C104.004162,89.918089 87.735878,86 71,86 C54.228004,86 37.95299,89.882403 25.458786,96.332664 C14.454523,102.013728 8,108.967647 8,114 L8,158 C8,162.924111 14.480342,169.884774 25.46558,175.582653 C37.995838,182.081911 54.264122,186 71,186 C87.771996,186 104.04701,182.117597 116.541214,175.667336 C127.545477,169.986272 134,163.032353 134,158 L134,114 Z" id="Oval-Copy-4" fill="#FFFFFF"></path>
            <path d="M0,112 L8,112 C8,116.924111 14.480342,123.884774 25.46558,129.582653 C37.995838,136.081911 54.264122,140 71,140 C87.771996,140 104.04701,136.117597 116.541214,129.667336 C127.545477,123.986272 134,117.032353 134,112 L142,112 C142,130.145312 107.415337,148 71,148 C34.730182,148 0,129.985973 0,112 Z" id="Oval-Copy-5" fill="#FFFFFF"></path>
            <path d="M201.96,127.36 L201.96,123.4 C201.96,120.88 200.28,119.2 197.4,119.2 C194.4,119.2 193,121.08 193,125.4 C193,129.72 194.4,131.6 197.4,131.6 C200.24,131.6 201.96,129.88 201.96,127.36 Z M207.16,136 L202.12,136 L202.12,134.96 L201.52,135.44 C201.24,135.6 200.68,135.84 199.8,136.12 C198.96,136.44 198.08,136.6 197.2,136.6 C194.36,136.6 192.08,135.64 190.36,133.68 C188.64,131.72 187.8,128.96 187.8,125.4 C187.8,121.84 188.64,119.12 190.36,117.16 C192.08,115.2 194.36,114.2 197.2,114.2 C199.08,114.2 200.84,114.76 201.48,115.2 L201.96,115.56 L201.96,108 L207.16,108 L207.16,136 Z M216.04,127.64 L216.04,114.8 L221.24,114.8 L221.24,127.8 C221.24,130.08 222.64,131.6 225.16,131.6 C227.68,131.6 229.04,130.24 229.04,128.16 L229.04,114.8 L234.24,114.8 L234.24,136 L229.2,136 L229.2,134.96 C227.84,136.04 226.28,136.6 224.56,136.6 C222.12,136.6 220.08,135.76 218.44,134.08 C216.84,132.36 216.04,130.24 216.04,127.64 Z M260.36,136 L242.36,136 L242.36,131 L247.6,131 L247.6,119.8 L242.84,119.8 L242.84,114.8 L252.64,114.8 L252.64,115.84 C252.68,115.8 253.96,114.2 256.08,114.2 C257.72,114.2 259.16,114.88 260.4,116.24 C261.68,117.6 262.36,119.6 262.44,122.28 L257.4,123.08 C257.16,120.48 256.24,119.2 254.68,119.2 C253.28,119.2 252.8,120 252.8,120.64 L252.8,131 L260.36,131 L260.36,136 Z M282.96,127.96 L287.92,128.76 C287.64,131.08 286.72,132.96 285.08,134.44 C283.44,135.88 281.44,136.6 279,136.6 C273.36,136.6 269.68,132.48 269.68,125.4 C269.68,118.32 273.36,114.2 279,114.2 C281.44,114.2 283.44,114.92 285.08,116.4 C286.72,117.84 287.64,119.72 287.92,122.04 L282.96,122.84 C282.6,120.4 281.32,119.2 279.04,119.2 C276.12,119.2 274.88,121.04 274.88,125.4 C274.88,129.76 276.12,131.6 279,131.6 C281.28,131.6 282.6,130.4 282.96,127.96 Z M302.36,136 L297.16,136 L297.16,108 L302.36,108 L302.36,115.36 C303.68,114.6 305.08,114.2 306.64,114.2 C309.08,114.2 311.08,115.04 312.64,116.76 C314.2,118.44 315,120.56 315,123.16 L315,136 L309.8,136 L309.8,123.04 C309.8,120.68 308.56,119.2 306.04,119.2 C303.6,119.2 302.36,120.56 302.36,122.68 L302.36,136 Z M362.76,127.36 L362.76,123.4 C362.76,120.88 361.08,119.2 358.2,119.2 C355.2,119.2 353.8,121.08 353.8,125.4 C353.8,129.72 355.2,131.6 358.2,131.6 C361.04,131.6 362.76,129.88 362.76,127.36 Z M367.96,136 L362.92,136 L362.92,134.96 L362.32,135.44 C362.04,135.6 361.48,135.84 360.6,136.12 C359.76,136.44 358.88,136.6 358,136.6 C355.16,136.6 352.88,135.64 351.16,133.68 C349.44,131.72 348.6,128.96 348.6,125.4 C348.6,121.84 349.44,119.12 351.16,117.16 C352.88,115.2 355.16,114.2 358,114.2 C359.88,114.2 361.64,114.76 362.28,115.2 L362.76,115.56 L362.76,108 L367.96,108 L367.96,136 Z M381.28,122 L376.44,121.2 C376.64,119 377.6,117.32 379.24,116.08 C380.92,114.84 382.8,114.2 384.88,114.2 C387.16,114.2 389.08,114.84 390.72,116.12 C392.36,117.4 393.2,119.08 393.2,121.12 L393.2,130.72 C393.2,131.32 393.6,131.6 394.4,131.6 L395.16,131.48 L396,135.68 C394.96,136.28 393.88,136.6 392.8,136.6 C391.56,136.6 390.24,136 389.72,135.52 L389.32,135.16 C388,136.12 386.28,136.6 384.24,136.6 C379.28,136.6 376.04,133.96 376.04,129.76 C376.04,125.48 378.88,123.88 384.6,123.08 C386.88,122.76 388,122.36 388,121.24 C388,119.88 387.04,119.2 385.12,119.2 C382.88,119.2 381.6,119.8 381.28,122 Z M388,129.4 L388,126.24 L387.92,126.32 C387.8,126.44 387.2,126.8 385.6,127.04 C384.16,127.24 383.52,127.36 382.56,127.72 C381.64,128.08 381.24,128.68 381.24,129.6 C381.24,130.92 382.36,131.6 384.64,131.6 C385,131.6 385.4,131.56 385.84,131.48 C386.76,131.32 388,130.56 388,129.4 Z M403.72,128.72 L408.52,127.84 C408.96,130.44 410.44,131.76 413.04,131.76 C415.56,131.76 416.72,130.76 416.72,129.6 C416.72,128.96 416.24,128.52 415.64,128.2 C415.32,128 414.52,127.72 414.2,127.68 C413.88,127.56 412.92,127.36 412.76,127.32 C410.96,126.88 410.04,126.6 408.44,125.92 C406.2,124.88 405,123.4 404.84,120.64 C404.84,118.64 406.36,114.2 412.88,114.2 C417.52,114.2 420.32,117 421.28,120.52 L416.68,121.52 C416,119.8 414.72,118.96 412.88,118.96 C410.76,118.96 410,119.88 410,120.68 C410,121.76 411.08,122.16 414,122.92 L415.56,123.32 C415.8,123.36 416.28,123.52 417.04,123.76 C417.8,124 418.32,124.2 418.6,124.4 C419.2,124.72 420.52,125.52 420.96,126.32 C421.4,127.08 421.88,128.28 421.88,129.6 C421.88,131.4 421.16,133.04 419.68,134.48 C418.2,135.88 416,136.6 413.04,136.6 C409.88,136.6 407.4,135.48 406,133.84 C404.6,132.2 403.92,130.48 403.72,128.72 Z M461.92,136 L456.52,136 L456.52,108 L461.68,108 L466.48,122.36 L471.28,108 L476.44,108 L476.44,136 L471.04,136 L471.04,118.64 L468.2,126.96 L464.76,126.96 L461.92,118.64 L461.92,136 Z M497.24,129 L502.04,130.64 C500.8,134.12 497.84,136.6 493.4,136.6 C490.52,136.6 488.2,135.64 486.48,133.68 C484.76,131.72 483.88,128.96 483.88,125.4 C483.88,121.84 484.72,119.12 486.4,117.16 C488.12,115.2 490.4,114.2 493.24,114.2 C496.08,114.2 498.36,115.2 500.08,117.16 C501.8,119.12 502.68,121.84 502.68,125.4 L502.68,126.96 L489.16,126.96 C489.44,130.12 490.64,131.6 493.32,131.6 C495.28,131.6 496.6,130.72 497.24,129 Z M489.36,122.44 L497.12,122.44 C496.6,120.28 495.32,119.2 493.24,119.2 C491.2,119.2 489.92,120.28 489.36,122.44 Z M516.44,136 L511.24,136 L511.24,114.8 L516.28,114.8 L516.28,115.84 C517.52,114.76 519,114.2 520.72,114.2 C523.16,114.2 525.16,115.04 526.72,116.76 C528.28,118.44 529.04,120.56 529.04,123.16 L529.04,136 L523.84,136 L523.84,123 C523.84,120.72 522.64,119.2 520.12,119.2 C517.68,119.2 516.44,120.52 516.44,122.64 L516.44,136 Z M537.64,127.64 L537.64,114.8 L542.84,114.8 L542.84,127.8 C542.84,130.08 544.24,131.6 546.76,131.6 C549.28,131.6 550.64,130.24 550.64,128.16 L550.64,114.8 L555.84,114.8 L555.84,136 L550.8,136 L550.8,134.96 C549.44,136.04 547.88,136.6 546.16,136.6 C543.72,136.6 541.68,135.76 540.04,134.08 C538.44,132.36 537.64,130.24 537.64,127.64 Z M552.84,112.2 L548.48,112.2 L548.48,108 L552.84,108 L552.84,112.2 Z M545.12,112.2 L540.72,112.2 L540.72,108 L545.12,108 L545.12,112.2 Z" id="durch-das-Menü" fill="#96CBDB"></path>
            <path d="M194.16,83 L188.76,83 L188.76,55 L193.76,55 L203.68,72.96 L203.68,55 L209.12,55 L209.12,83 L204.2,83 L194.16,65.04 L194.16,83 Z M220.48,69 L215.64,68.2 C215.84,66 216.8,64.32 218.44,63.08 C220.12,61.84 222,61.2 224.08,61.2 C226.36,61.2 228.28,61.84 229.92,63.12 C231.56,64.4 232.4,66.08 232.4,68.12 L232.4,77.72 C232.4,78.32 232.8,78.6 233.6,78.6 L234.36,78.48 L235.2,82.68 C234.16,83.28 233.08,83.6 232,83.6 C230.76,83.6 229.44,83 228.92,82.52 L228.52,82.16 C227.2,83.12 225.48,83.6 223.44,83.6 C218.48,83.6 215.24,80.96 215.24,76.76 C215.24,72.48 218.08,70.88 223.8,70.08 C226.08,69.76 227.2,69.36 227.2,68.24 C227.2,66.88 226.24,66.2 224.32,66.2 C222.08,66.2 220.8,66.8 220.48,69 Z M227.2,76.4 L227.2,73.24 L227.12,73.32 C227,73.44 226.4,73.8 224.8,74.04 C223.36,74.24 222.72,74.36 221.76,74.72 C220.84,75.08 220.44,75.68 220.44,76.6 C220.44,77.92 221.56,78.6 223.84,78.6 C224.2,78.6 224.6,78.56 225.04,78.48 C225.96,78.32 227.2,77.56 227.2,76.4 Z M254.2,83 L249.8,83 L241.32,61.8 L246.72,61.8 L252.04,75 L257.36,61.8 L262.68,61.8 L254.2,83 Z M288.44,83 L269.52,83 L269.52,78 L276.92,78 L276.92,66.8 L270.4,66.8 L270.4,61.8 L282.12,61.8 L282.12,78 L288.44,78 L288.44,83 Z M282.12,59.92 L276.92,59.92 L276.92,55 L282.12,55 L282.12,59.92 Z M310.04,74.36 L310.04,70.4 C310.04,67.88 308.36,66.2 305.48,66.2 C302.48,66.2 301.08,68.08 301.08,72.4 C301.08,76.72 302.48,78.6 305.48,78.6 C308.32,78.6 310.04,76.88 310.04,74.36 Z M297.4,85.48 L302.24,84.64 C302.6,86.76 303.96,87.8 306.28,87.8 C308.8,87.8 310.04,86.44 310.04,83.68 L310.04,82.28 C308.88,83.16 307.28,83.6 305.28,83.6 C302.44,83.6 300.16,82.64 298.44,80.68 C296.72,78.72 295.88,75.96 295.88,72.4 C295.88,68.84 296.72,66.12 298.44,64.16 C300.16,62.2 302.44,61.2 305.28,61.2 C307.04,61.2 308.88,61.92 309.64,62.44 L310.2,62.84 L310.2,61.8 L315.24,61.8 L315.24,83.6 C315.24,86.2 314.4,88.36 312.76,90.04 C311.12,91.76 308.96,92.6 306.36,92.6 C301.36,92.6 297.88,89.8 297.4,85.48 Z M327.68,69 L322.84,68.2 C323.04,66 324,64.32 325.64,63.08 C327.32,61.84 329.2,61.2 331.28,61.2 C333.56,61.2 335.48,61.84 337.12,63.12 C338.76,64.4 339.6,66.08 339.6,68.12 L339.6,77.72 C339.6,78.32 340,78.6 340.8,78.6 L341.56,78.48 L342.4,82.68 C341.36,83.28 340.28,83.6 339.2,83.6 C337.96,83.6 336.64,83 336.12,82.52 L335.72,82.16 C334.4,83.12 332.68,83.6 330.64,83.6 C325.68,83.6 322.44,80.96 322.44,76.76 C322.44,72.48 325.28,70.88 331,70.08 C333.28,69.76 334.4,69.36 334.4,68.24 C334.4,66.88 333.44,66.2 331.52,66.2 C329.28,66.2 328,66.8 327.68,69 Z M334.4,76.4 L334.4,73.24 L334.32,73.32 C334.2,73.44 333.6,73.8 332,74.04 C330.56,74.24 329.92,74.36 328.96,74.72 C328.04,75.08 327.64,75.68 327.64,76.6 C327.64,77.92 328.76,78.6 331.04,78.6 C331.4,78.6 331.8,78.56 332.24,78.48 C333.16,78.32 334.4,77.56 334.4,76.4 Z M354.16,77.32 L354.16,66.8 L350.24,66.8 L350.24,61.8 L354.16,61.8 L354.16,55 L359.36,55 L359.36,61.8 L368.08,61.8 L368.08,66.8 L359.36,66.8 L359.36,76.92 C359.32,77.4 359.52,78.48 361.2,78.6 C362.8,78.6 363.52,77.92 363.88,75.16 L368.76,75.96 C367.84,81.68 365.2,83.6 361.2,83.6 C359.16,83.6 357.48,83.04 356.16,81.88 C354.84,80.72 354.16,79.2 354.16,77.32 Z M395.64,83 L376.72,83 L376.72,78 L384.12,78 L384.12,66.8 L377.6,66.8 L377.6,61.8 L389.32,61.8 L389.32,78 L395.64,78 L395.64,83 Z M389.32,59.92 L384.12,59.92 L384.12,55 L389.32,55 L389.32,59.92 Z M409.64,77.16 C410.32,78.12 411.36,78.6 412.8,78.6 C414.24,78.6 415.28,78.12 415.92,77.16 C416.6,76.16 416.92,74.6 416.92,72.4 C416.92,70.2 416.6,68.64 415.92,67.68 C415.28,66.68 414.24,66.2 412.8,66.2 C411.36,66.2 410.32,66.68 409.64,67.68 C409,68.64 408.68,70.2 408.68,72.4 C408.68,74.6 409,76.16 409.64,77.16 Z M419.56,80.68 C417.88,82.64 415.64,83.6 412.8,83.6 C409.96,83.6 407.72,82.64 406,80.68 C404.32,78.72 403.48,75.96 403.48,72.4 C403.48,68.84 404.32,66.12 406,64.16 C407.72,62.2 409.96,61.2 412.8,61.2 C415.64,61.2 417.88,62.2 419.56,64.16 C421.28,66.12 422.12,68.84 422.12,72.4 C422.12,75.96 421.28,78.72 419.56,80.68 Z M436.04,83 L430.84,83 L430.84,61.8 L435.88,61.8 L435.88,62.84 C437.12,61.76 438.6,61.2 440.32,61.2 C442.76,61.2 444.76,62.04 446.32,63.76 C447.88,65.44 448.64,67.56 448.64,70.16 L448.64,83 L443.44,83 L443.44,70 C443.44,67.72 442.24,66.2 439.72,66.2 C437.28,66.2 436.04,67.52 436.04,69.64 L436.04,83 Z" id="Navigation" fill="#FFFFFF"></path>
            <polygon id="Rectangle-15-Copy-2" fill="#96CBDB" transform="translate(102.320994, 48.208536) rotate(-158.000000) translate(-102.320994, -48.208536) " points="115.206706 54.956662 114.359273 62.911652 89.4352822 60.256538 92.7811672 33.505419 100.719317 34.49828 98.3846312 53.164633"></polygon>
            <path d="M33.774734,0.180802 L36.152741,7.819198 C22.085281,12.198721 14,18.877337 14,25.069815 C14,36.266501 38.78093,47 69.866226,47 C78.112443,47 86.106724,46.256358 93.447057,44.839881 C100.63773,43.452284 107.060269,41.444291 112.291672,38.973371 L115.708328,46.207074 C109.837455,48.980032 102.780438,51.186393 94.962866,52.694963 C87.116112,54.209165 78.614504,55 69.866226,55 C34.825115,55 6,42.514821 6,25.069815 C6,14.35223 16.733496,5.48613 33.774734,0.180802 Z" id="Oval-4" fill="#96CBDB"></path>
        </g>
    </g>
</svg>