<?xml version="1.0" encoding="UTF-8"?>
<svg width="1280px" height="1024px" viewBox="0 0 1280 1024" version="1.1" xmlns="http://www.w3.org/2000/svg" xmlns:xlink="http://www.w3.org/1999/xlink">
    <!-- Generator: Sketch 50.2 (55047) - http://www.bohemiancoding.com/sketch -->
    <title>icon-click</title>
    <desc>Created with Sketch.</desc>
    <defs></defs>
    <g id="icon-click" stroke="none" stroke-width="1" fill="none" fill-rule="evenodd">
        <path d="M461,512 L461,556 C461,574.145312 426.415337,592 390,592 C353.730182,592 319,573.985973 319,556 L319,512 C319,493.854688 353.584663,476 390,476 C426.269818,476 461,494.014027 461,512 Z M453,512 C453,507.075889 446.519658,500.115226 435.53442,494.417347 C423.004162,487.918089 406.735878,484 390,484 C373.228004,484 356.95299,487.882403 344.458786,494.332664 C333.454523,500.013728 327,506.967647 327,512 L327,556 C327,560.924111 333.480342,567.884774 344.46558,573.582653 C356.995838,580.081911 373.264122,584 390,584 C406.771996,584 423.04701,580.117597 435.541214,573.667336 C446.545477,567.986272 453,561.032353 453,556 L453,512 Z" id="Oval-Copy-2" fill="#FFFFFF" fill-rule="nonzero"></path>
        <path d="M319,510 L327,510 C327,514.924111 333.480342,521.884774 344.46558,527.582653 C356.995838,534.081911 373.264122,538 390,538 C406.771996,538 423.04701,534.117597 435.541214,527.667336 C446.545477,521.986272 453,515.032353 453,510 L461,510 C461,528.145312 426.415337,546 390,546 C353.730182,546 319,527.985973 319,510 Z" id="Oval-Copy-3" fill="#FFFFFF" fill-rule="nonzero"></path>
        <path d="M510.88,481 L505.32,481 L515.04,453 L519.8,453 L529.48,481 L523.72,481 L522.08,476.12 L512.52,476.12 L510.88,481 Z M517.32,461.32 L514.32,470.92 L520.36,470.92 L517.32,461.32 Z M535.04,472.64 L535.04,459.8 L540.24,459.8 L540.24,472.8 C540.24,475.08 541.64,476.6 544.16,476.6 C546.68,476.6 548.04,475.24 548.04,473.16 L548.04,459.8 L553.24,459.8 L553.24,481 L548.2,481 L548.2,479.96 C546.84,481.04 545.28,481.6 543.56,481.6 C541.12,481.6 539.08,480.76 537.44,479.08 C535.84,477.36 535.04,475.24 535.04,472.64 Z M561.92,473.72 L566.72,472.84 C567.16,475.44 568.64,476.76 571.24,476.76 C573.76,476.76 574.92,475.76 574.92,474.6 C574.92,473.96 574.44,473.52 573.84,473.2 C573.52,473 572.72,472.72 572.4,472.68 C572.08,472.56 571.12,472.36 570.96,472.32 C569.16,471.88 568.24,471.6 566.64,470.92 C564.4,469.88 563.2,468.4 563.04,465.64 C563.04,463.64 564.56,459.2 571.08,459.2 C575.72,459.2 578.52,462 579.48,465.52 L574.88,466.52 C574.2,464.8 572.92,463.96 571.08,463.96 C568.96,463.96 568.2,464.88 568.2,465.68 C568.2,466.76 569.28,467.16 572.2,467.92 L573.76,468.32 C574,468.36 574.48,468.52 575.24,468.76 C576,469 576.52,469.2 576.8,469.4 C577.4,469.72 578.72,470.52 579.16,471.32 C579.6,472.08 580.08,473.28 580.08,474.6 C580.08,476.4 579.36,478.04 577.88,479.48 C576.4,480.88 574.2,481.6 571.24,481.6 C568.08,481.6 565.6,480.48 564.2,478.84 C562.8,477.2 562.12,475.48 561.92,473.72 Z M594.12,481 L589.24,481 L584.56,459.8 L589.64,459.8 L592.44,472.76 L595.68,459.8 L600,459.8 L603.24,472.72 L606.04,459.8 L611.04,459.8 L606.36,481 L601.48,481 L597.8,467.76 L594.12,481 Z M619.88,467 L615.04,466.2 C615.24,464 616.2,462.32 617.84,461.08 C619.52,459.84 621.4,459.2 623.48,459.2 C625.76,459.2 627.68,459.84 629.32,461.12 C630.96,462.4 631.8,464.08 631.8,466.12 L631.8,475.72 C631.8,476.32 632.2,476.6 633,476.6 L633.76,476.48 L634.6,480.68 C633.56,481.28 632.48,481.6 631.4,481.6 C630.16,481.6 628.84,481 628.32,480.52 L627.92,480.16 C626.6,481.12 624.88,481.6 622.84,481.6 C617.88,481.6 614.64,478.96 614.64,474.76 C614.64,470.48 617.48,468.88 623.2,468.08 C625.48,467.76 626.6,467.36 626.6,466.24 C626.6,464.88 625.64,464.2 623.72,464.2 C621.48,464.2 620.2,464.8 619.88,467 Z M626.6,474.4 L626.6,471.24 L626.52,471.32 C626.4,471.44 625.8,471.8 624.2,472.04 C622.76,472.24 622.12,472.36 621.16,472.72 C620.24,473.08 619.84,473.68 619.84,474.6 C619.84,475.92 620.96,476.6 623.24,476.6 C623.6,476.6 624,476.56 624.44,476.48 C625.36,476.32 626.6,475.56 626.6,474.4 Z M648.16,481 L642.96,481 L642.96,453 L648.16,453 L648.16,460.36 C649.48,459.6 650.88,459.2 652.44,459.2 C654.88,459.2 656.88,460.04 658.44,461.76 C660,463.44 660.8,465.56 660.8,468.16 L660.8,481 L655.6,481 L655.6,468.04 C655.6,465.68 654.36,464.2 651.84,464.2 C649.4,464.2 648.16,465.56 648.16,467.68 L648.16,481 Z M688.04,481 L668.4,481 L668.4,476 L675.72,476 L675.72,458 L669.96,458 L669.96,453 L680.92,453 L680.92,476 L688.04,476 L688.04,481 Z" id="Auswahl" fill="#FFFFFF"></path>
        <path d="M521.44,527 L526.24,528.64 C525,532.12 522.04,534.6 517.6,534.6 C514.72,534.6 512.4,533.64 510.68,531.68 C508.96,529.72 508.08,526.96 508.08,523.4 C508.08,519.84 508.92,517.12 510.6,515.16 C512.32,513.2 514.6,512.2 517.44,512.2 C520.28,512.2 522.56,513.2 524.28,515.16 C526,517.12 526.88,519.84 526.88,523.4 L526.88,524.96 L513.36,524.96 C513.64,528.12 514.84,529.6 517.52,529.6 C519.48,529.6 520.8,528.72 521.44,527 Z M513.56,520.44 L521.32,520.44 C520.8,518.28 519.52,517.2 517.44,517.2 C515.4,517.2 514.12,518.28 513.56,520.44 Z M553.84,534 L534.92,534 L534.92,529 L542.32,529 L542.32,517.8 L535.8,517.8 L535.8,512.8 L547.52,512.8 L547.52,529 L553.84,529 L553.84,534 Z M547.52,510.92 L542.32,510.92 L542.32,506 L547.52,506 L547.52,510.92 Z M567.44,534 L562.24,534 L562.24,512.8 L567.28,512.8 L567.28,513.84 C568.52,512.76 570,512.2 571.72,512.2 C574.16,512.2 576.16,513.04 577.72,514.76 C579.28,516.44 580.04,518.56 580.04,521.16 L580.04,534 L574.84,534 L574.84,521 C574.84,518.72 573.64,517.2 571.12,517.2 C568.68,517.2 567.44,518.52 567.44,520.64 L567.44,534 Z M601.84,527 L606.64,528.64 C605.4,532.12 602.44,534.6 598,534.6 C595.12,534.6 592.8,533.64 591.08,531.68 C589.36,529.72 588.48,526.96 588.48,523.4 C588.48,519.84 589.32,517.12 591,515.16 C592.72,513.2 595,512.2 597.84,512.2 C600.68,512.2 602.96,513.2 604.68,515.16 C606.4,517.12 607.28,519.84 607.28,523.4 L607.28,524.96 L593.76,524.96 C594.04,528.12 595.24,529.6 597.92,529.6 C599.88,529.6 601.2,528.72 601.84,527 Z M593.96,520.44 L601.72,520.44 C601.2,518.28 599.92,517.2 597.84,517.2 C595.8,517.2 594.52,518.28 593.96,520.44 Z M615.52,526.72 L620.32,525.84 C620.76,528.44 622.24,529.76 624.84,529.76 C627.36,529.76 628.52,528.76 628.52,527.6 C628.52,526.96 628.04,526.52 627.44,526.2 C627.12,526 626.32,525.72 626,525.68 C625.68,525.56 624.72,525.36 624.56,525.32 C622.76,524.88 621.84,524.6 620.24,523.92 C618,522.88 616.8,521.4 616.64,518.64 C616.64,516.64 618.16,512.2 624.68,512.2 C629.32,512.2 632.12,515 633.08,518.52 L628.48,519.52 C627.8,517.8 626.52,516.96 624.68,516.96 C622.56,516.96 621.8,517.88 621.8,518.68 C621.8,519.76 622.88,520.16 625.8,520.92 L627.36,521.32 C627.6,521.36 628.08,521.52 628.84,521.76 C629.6,522 630.12,522.2 630.4,522.4 C631,522.72 632.32,523.52 632.76,524.32 C633.2,525.08 633.68,526.28 633.68,527.6 C633.68,529.4 632.96,531.04 631.48,532.48 C630,533.88 627.8,534.6 624.84,534.6 C621.68,534.6 619.2,533.48 617.8,531.84 C616.4,530.2 615.72,528.48 615.52,526.72 Z M673.72,534 L668.32,534 L668.32,506 L673.48,506 L678.28,520.36 L683.08,506 L688.24,506 L688.24,534 L682.84,534 L682.84,516.64 L680,524.96 L676.56,524.96 L673.72,516.64 L673.72,534 Z M709.04,527 L713.84,528.64 C712.6,532.12 709.64,534.6 705.2,534.6 C702.32,534.6 700,533.64 698.28,531.68 C696.56,529.72 695.68,526.96 695.68,523.4 C695.68,519.84 696.52,517.12 698.2,515.16 C699.92,513.2 702.2,512.2 705.04,512.2 C707.88,512.2 710.16,513.2 711.88,515.16 C713.6,517.12 714.48,519.84 714.48,523.4 L714.48,524.96 L700.96,524.96 C701.24,528.12 702.44,529.6 705.12,529.6 C707.08,529.6 708.4,528.72 709.04,527 Z M701.16,520.44 L708.92,520.44 C708.4,518.28 707.12,517.2 705.04,517.2 C703,517.2 701.72,518.28 701.16,520.44 Z M728.24,534 L723.04,534 L723.04,512.8 L728.08,512.8 L728.08,513.84 C729.32,512.76 730.8,512.2 732.52,512.2 C734.96,512.2 736.96,513.04 738.52,514.76 C740.08,516.44 740.84,518.56 740.84,521.16 L740.84,534 L735.64,534 L735.64,521 C735.64,518.72 734.44,517.2 731.92,517.2 C729.48,517.2 728.24,518.52 728.24,520.64 L728.24,534 Z M749.44,525.64 L749.44,512.8 L754.64,512.8 L754.64,525.8 C754.64,528.08 756.04,529.6 758.56,529.6 C761.08,529.6 762.44,528.24 762.44,526.16 L762.44,512.8 L767.64,512.8 L767.64,534 L762.6,534 L762.6,532.96 C761.24,534.04 759.68,534.6 757.96,534.6 C755.52,534.6 753.48,533.76 751.84,532.08 C750.24,530.36 749.44,528.24 749.44,525.64 Z M764.64,510.2 L760.28,510.2 L760.28,506 L764.64,506 L764.64,510.2 Z M756.92,510.2 L752.52,510.2 L752.52,506 L756.92,506 L756.92,510.2 Z M781.84,521.2 L781.84,525.56 C781.84,527.96 783.64,529.6 786.4,529.6 C789.4,529.6 790.8,527.72 790.8,523.4 C790.8,519.08 789.4,517.2 786.4,517.2 C783.64,517.2 781.84,518.84 781.84,521.2 Z M781.84,543 L776.64,543 L776.64,512.8 L781.68,512.8 L781.68,513.84 C781.8,513.72 782,513.56 782.28,513.4 C782.56,513.2 783.12,512.96 783.96,512.68 C784.84,512.36 785.72,512.2 786.6,512.2 C789.44,512.2 791.72,513.2 793.44,515.16 C795.16,517.12 796,519.84 796,523.4 C796,526.96 795.16,529.72 793.44,531.68 C791.72,533.64 789.44,534.6 786.6,534.6 C784.72,534.6 783,534.08 782.36,533.6 L781.84,533.28 L781.84,543 Z M803.04,525.64 L803.04,512.8 L808.24,512.8 L808.24,525.8 C808.24,528.08 809.64,529.6 812.16,529.6 C814.68,529.6 816.04,528.24 816.04,526.16 L816.04,512.8 L821.24,512.8 L821.24,534 L816.2,534 L816.2,532.96 C814.84,534.04 813.28,534.6 811.56,534.6 C809.12,534.6 807.08,533.76 805.44,532.08 C803.84,530.36 803.04,528.24 803.04,525.64 Z M835.44,534 L830.24,534 L830.24,512.8 L835.28,512.8 L835.28,513.84 C836.52,512.76 838,512.2 839.72,512.2 C842.16,512.2 844.16,513.04 845.72,514.76 C847.28,516.44 848.04,518.56 848.04,521.16 L848.04,534 L842.84,534 L842.84,521 C842.84,518.72 841.64,517.2 839.12,517.2 C836.68,517.2 835.44,518.52 835.44,520.64 L835.44,534 Z M863.28,534 L858.08,534 L858.08,506 L863.28,506 L863.28,520.04 L869.32,512.8 L875.56,512.8 L869.04,520.6 L876.68,534 L871.08,534 L865.68,524.56 L863.28,527.48 L863.28,534 Z M887.56,528.32 L887.56,517.8 L883.64,517.8 L883.64,512.8 L887.56,512.8 L887.56,506 L892.76,506 L892.76,512.8 L901.48,512.8 L901.48,517.8 L892.76,517.8 L892.76,527.92 C892.72,528.4 892.92,529.48 894.6,529.6 C896.2,529.6 896.92,528.92 897.28,526.16 L902.16,526.96 C901.24,532.68 898.6,534.6 894.6,534.6 C892.56,534.6 890.88,534.04 889.56,532.88 C888.24,531.72 887.56,530.2 887.56,528.32 Z M923.44,527 L928.24,528.64 C927,532.12 924.04,534.6 919.6,534.6 C916.72,534.6 914.4,533.64 912.68,531.68 C910.96,529.72 910.08,526.96 910.08,523.4 C910.08,519.84 910.92,517.12 912.6,515.16 C914.32,513.2 916.6,512.2 919.44,512.2 C922.28,512.2 924.56,513.2 926.28,515.16 C928,517.12 928.88,519.84 928.88,523.4 L928.88,524.96 L915.36,524.96 C915.64,528.12 916.84,529.6 919.52,529.6 C921.48,529.6 922.8,528.72 923.44,527 Z M915.56,520.44 L923.32,520.44 C922.8,518.28 921.52,517.2 919.44,517.2 C917.4,517.2 916.12,518.28 915.56,520.44 Z M937.12,526.72 L941.92,525.84 C942.36,528.44 943.84,529.76 946.44,529.76 C948.96,529.76 950.12,528.76 950.12,527.6 C950.12,526.96 949.64,526.52 949.04,526.2 C948.72,526 947.92,525.72 947.6,525.68 C947.28,525.56 946.32,525.36 946.16,525.32 C944.36,524.88 943.44,524.6 941.84,523.92 C939.6,522.88 938.4,521.4 938.24,518.64 C938.24,516.64 939.76,512.2 946.28,512.2 C950.92,512.2 953.72,515 954.68,518.52 L950.08,519.52 C949.4,517.8 948.12,516.96 946.28,516.96 C944.16,516.96 943.4,517.88 943.4,518.68 C943.4,519.76 944.48,520.16 947.4,520.92 L948.96,521.32 C949.2,521.36 949.68,521.52 950.44,521.76 C951.2,522 951.72,522.2 952,522.4 C952.6,522.72 953.92,523.52 954.36,524.32 C954.8,525.08 955.28,526.28 955.28,527.6 C955.28,529.4 954.56,531.04 953.08,532.48 C951.6,533.88 949.4,534.6 946.44,534.6 C943.28,534.6 940.8,533.48 939.4,531.84 C938,530.2 937.32,528.48 937.12,526.72 Z" id="eines-Menüpunktes" fill="#96CBDB"></path>
        <polygon id="Line-6" fill="#96CBDB" fill-rule="nonzero" points="385.5 393.975563 393.5 393.975563 393.5 448.02419 385.5 448.02419"></polygon>
        <polygon id="Rectangle-15" fill="#96CBDB" fill-rule="nonzero" transform="translate(387.849242, 433.849242) rotate(-45.000000) translate(-387.849242, -433.849242) " points="400.349242 438.349242 400.349242 446.349242 375.349242 446.349242 375.349242 421.349242 383.349242 421.349242 383.349242 438.349242"></polygon>
    </g>
</svg>